<svg width="111" height="33" viewBox="0 0 111 33" fill="none" xmlns="http://www.w3.org/2000/svg">
<g clip-path="url(#clip0_236_2656)">
<path d="M12.8981 0.147135C12.6365 0.240471 12.2627 0.389808 12.0945 0.501811L11.7768 0.707149L11.8329 1.1925L11.8889 1.69651L10.9545 1.92051C10.4498 2.03252 9.81441 2.16319 9.55276 2.20052C7.10447 2.4992 5.25422 3.00321 4.245 3.67523C3.7217 4.01123 3.46005 4.30991 3.12364 4.88859C2.17049 6.56863 1.68457 6.97931 0.880929 6.73664C0.712725 6.68064 0.544522 6.6433 0.544522 6.66197C0.525832 6.68064 0.787483 6.99798 1.14258 7.37132C1.75933 8.02467 1.75933 8.02467 1.42292 7.85667C1.21734 7.74466 0.955686 7.57666 0.787483 7.44599C0.413697 7.12865 0.451075 7.24065 0.880929 7.70733C1.19865 8.062 1.14258 8.17401 0.787483 7.894C0.731415 7.85667 0.656657 7.81933 0.637968 7.85667C0.619279 7.87533 0.750104 8.062 0.974375 8.24868C1.44161 8.69669 2.18918 9.0887 2.74986 9.16337C3.08627 9.2007 3.17971 9.2567 3.10496 9.33137C2.93675 9.51804 2.65641 10.7687 2.61903 11.5714C2.58166 12.2434 2.60034 12.4114 2.74986 12.7661C2.97413 13.2701 2.97413 13.5501 2.80593 14.2408C2.60034 15.0248 2.22656 15.7342 1.19865 17.2649C-0.128293 19.2436 -0.22174 19.505 0.282872 20.009C0.5819 20.3077 1.16127 20.4757 1.77802 20.4757C2.00229 20.4757 2.1518 20.5503 2.33869 20.7183C2.63772 21.017 2.65641 21.3343 2.45083 22.1557L2.30132 22.7157L2.52559 23.1264C2.74986 23.4997 2.74986 23.5371 2.61903 23.9104C2.45083 24.4518 2.52559 24.6758 3.0302 25.2358C3.51612 25.7771 3.60957 26.1131 3.47874 26.8038C3.34792 27.4945 3.36661 27.8492 3.57219 28.2599C4.00204 29.1372 5.62801 29.8279 6.97364 29.7159C7.31005 29.6972 8.4501 29.4546 9.51538 29.1932C10.5807 28.9319 11.5525 28.7265 11.6833 28.7265C12.0011 28.7265 12.3375 29.0252 12.4122 29.3612C12.4309 29.5106 12.3748 30.0892 12.244 30.6866C11.9824 31.9373 11.9824 31.9933 12.188 32.1426C12.7486 32.5906 13.571 32.8333 14.711 32.908C15.795 32.9826 16.6173 32.8146 18.7853 32.124L20.486 31.5639L20.4299 31.3399C20.3365 31.0413 20.3552 30.5373 20.4299 29.6412C20.5234 28.8012 20.3365 27.9799 19.9814 27.5318C19.6076 27.0838 19.4207 27.1025 18.4676 27.7372C17.477 28.3905 16.8603 28.6519 16.038 28.7079C14.8418 28.8012 13.9261 28.3345 13.4588 27.4012C13.2346 26.9532 13.1972 26.8038 13.1972 26.1691V25.4225L12.7673 25.3664C11.9076 25.2544 11.5338 24.9184 11.4591 24.1158C11.3843 23.4437 11.3096 23.4064 10.4685 23.7611C10.0761 23.9291 9.6649 24.0971 9.57145 24.1158C9.45932 24.1531 9.36587 24.2278 9.36587 24.3398C9.36587 24.6384 9.21636 24.8251 8.84257 24.9744C8.24451 25.1984 7.55301 25.1051 7.06709 24.7131C6.82413 24.5264 6.82413 24.5078 6.95495 24.2651C7.16053 23.9104 7.83335 23.4811 8.28189 23.4064C8.65568 23.3504 8.84257 23.4064 9.17898 23.6491C9.29111 23.7237 9.45932 23.6864 10.02 23.4251L10.7115 23.0891L10.6554 22.6784C10.6181 22.305 10.7676 21.6144 11.0292 20.9237C11.0666 20.8303 10.9732 20.7743 10.7489 20.737C10.0387 20.6063 9.34718 20.121 9.17898 19.6356C8.95471 19.0383 9.08553 18.6649 9.88917 17.7129C10.6554 16.8169 11.2909 15.7529 11.4591 15.0809L11.6086 14.5208L11.403 14.3528C11.1974 14.1848 11.1787 14.1848 11.16 14.3342C11.0853 14.8008 10.4312 14.8942 10.3003 14.4462C10.2816 14.3155 10.1695 14.1475 10.0574 14.0728C9.60883 13.7368 9.36587 10.0594 9.70228 8.73402C10.1508 6.94198 11.16 5.3366 12.4309 4.40324C12.6365 4.25391 12.786 4.06724 12.786 3.9739C12.786 3.88056 12.6739 3.17121 12.5244 2.38719C12.3375 1.37917 12.3001 0.949823 12.3562 0.856487C12.5617 0.613814 13.2346 0.427142 14.0008 0.427142C14.412 0.427142 14.7858 0.464476 14.8418 0.520478C14.8979 0.576479 14.954 1.02449 15.01 1.5285C15.0474 2.03252 15.1035 2.46186 15.1222 2.4992C15.1409 2.51786 15.5333 2.40586 16.0006 2.23786C16.4491 2.06985 17.1967 1.86451 17.6452 1.78984C18.1498 1.67784 18.3741 1.60317 18.262 1.56584C17.8321 1.43517 16.5052 1.2485 16.0193 1.2485C15.4212 1.2485 15.4212 1.2485 15.3651 0.557812C15.3464 0.277805 15.3091 0.240471 14.9166 0.109801C14.2812 -0.0395359 13.5149 -0.0395365 12.8981 0.147135Z" fill="#0973B9"/>
<path d="M21.2522 0.147087C20.6542 0.333758 20.243 0.576432 20.1683 0.78177C20.1496 0.856439 20.1683 1.15511 20.2056 1.43512C20.2617 1.69646 20.2991 1.93913 20.2991 1.9578C20.2991 1.97647 20.0935 1.97647 19.8505 1.97647C18.6357 1.97647 16.8042 2.34981 15.6455 2.83516C13.926 3.54451 12.0197 5.03788 11.1226 6.40058C10.1882 7.81928 9.90784 8.86464 9.90784 10.7874C9.90784 11.4967 9.9826 12.3927 10.0574 12.7661L10.1882 13.4568L10.2069 12.3367L10.2256 11.2167L10.3564 12.4301L10.4872 13.6434L10.5433 12.6914C10.618 11.478 10.618 11.5154 10.6928 11.5714C10.7302 11.59 10.8049 11.8141 10.8236 12.0754C10.861 12.3181 10.9358 12.7287 11.0105 12.9527C11.0853 13.1954 11.1226 13.2701 11.104 13.1021C11.0853 12.9527 11.0479 12.5047 11.0292 12.1127C10.9918 11.478 10.9918 11.4594 11.0666 11.8887C11.104 12.1501 11.1974 12.5981 11.2722 12.8781L11.403 13.4008L11.3656 12.9714L11.3282 12.5421L11.4404 12.9341C11.5525 13.3261 11.5525 13.3261 11.4964 12.6727C11.403 11.7767 11.4404 9.574 11.5338 9.34999C11.5899 9.23799 11.6273 9.798 11.6273 10.8994C11.6273 12.0381 11.702 12.9341 11.7768 13.4754C11.9637 14.5581 11.945 14.7821 11.7394 15.4541C11.5525 16.0702 10.6367 17.5262 9.94522 18.3102C9.4593 18.8702 9.38454 19.0569 9.44061 19.4489C9.53405 19.8969 10.076 20.3076 10.7862 20.4196C11.0292 20.4569 11.1787 20.5316 11.2722 20.6809C11.403 20.8676 11.3843 20.9423 11.1787 21.633C11.0666 22.0436 10.9544 22.4917 10.9544 22.6223C10.9544 22.9023 11.2722 23.257 11.6459 23.3877C11.8702 23.4624 11.8889 23.4997 11.8142 23.6304C11.702 23.8544 11.702 24.2837 11.8515 24.5637C12.001 24.8437 12.3188 24.9931 12.7486 24.9931C12.9542 24.9931 13.1598 25.0677 13.3093 25.1797C13.5336 25.3664 13.5336 25.3851 13.4775 25.9451C13.3467 27.3265 14.0756 28.2225 15.4586 28.3345C16.2248 28.4091 17.0098 28.1478 17.9069 27.5505C19.2525 26.6544 19.4768 26.6171 20.0374 27.1958C20.6916 27.8865 20.7476 28.1851 20.6542 30.8359C20.6355 31.4332 20.7103 31.4892 21.2896 31.3399C22.5979 30.9852 23.8314 30.8359 25.3452 30.8359C26.7095 30.8359 27.0272 30.8545 28.7467 31.1719C30.6903 31.5079 31.3632 31.5266 31.6061 31.2839C31.7183 31.1719 31.6622 31.0785 31.1389 30.5559C30.1297 29.5478 29.6251 28.2038 29.5129 26.3184C29.4008 24.1344 30.0362 22.3423 31.4566 20.8676C32.1855 20.1023 33.5685 18.1982 34.2974 16.9849C34.7459 16.2195 35.0823 15.1928 35.0823 14.6515C35.0823 14.4275 35.0263 14.0354 34.9702 13.7928C34.8581 13.4008 34.8581 13.2888 34.9702 12.9714C35.1945 12.2994 34.9702 11.2167 34.2413 9.76067L33.9423 9.16332L34.2974 9.55533C35.2879 10.6567 36.7644 13.2514 37.4746 15.1928C38.5025 18.0115 38.8949 21.2596 38.5772 24.265C38.4464 25.4597 37.9418 28.2598 37.7923 28.6892C37.6801 28.9692 37.9231 28.7452 38.0726 28.4465C38.1287 28.2971 38.1848 28.2225 38.1848 28.2971C38.1848 28.5211 38.3716 28.2971 38.652 27.7185C38.9884 27.0651 39.194 26.4118 39.3435 25.5157L39.4556 24.8997V25.6651C39.4556 26.0944 39.4182 26.8038 39.3435 27.2518C39.2874 27.6998 39.2314 28.0918 39.25 28.1105C39.2687 28.1291 39.4182 27.8678 39.5865 27.5131L39.9042 26.8784L39.8481 27.4385C39.8107 27.8305 39.8294 27.9611 39.8855 27.9051C40.035 27.7558 40.3901 26.6731 40.4835 26.0197C40.5396 25.6837 40.5957 25.4037 40.6331 25.3664C40.6517 25.3477 40.6517 25.9264 40.6331 26.6918C40.5957 28.1478 40.6331 28.2225 40.9134 27.1398C41.1003 26.4304 41.1377 25.4411 41.0068 24.7877C40.9508 24.5077 40.9695 24.0784 41.1003 23.2383C41.1937 22.6037 41.2872 21.801 41.3246 21.465C41.3806 20.8863 41.3993 20.8676 41.4554 21.2036C41.4928 21.3903 41.5301 22.0996 41.5301 22.7903L41.5488 24.041L41.717 23.705C41.8105 23.5184 41.8852 23.2943 41.8852 23.201C41.8852 23.1263 41.9226 23.0517 41.9974 23.0517C42.0721 23.0517 42.0721 23.369 42.0348 24.209C42.0161 24.8437 41.96 25.4971 41.9226 25.6464C41.8852 25.9077 41.8852 25.9077 42.0161 25.7584C42.1095 25.6651 42.3525 25.1984 42.5767 24.7317C43.7542 22.305 44.2401 18.3662 43.9411 14.0168C43.4364 5.74723 40.7078 0.595099 36.9513 0.595099C35.4187 0.595099 33.2695 1.7898 31.4379 3.63784L30.709 4.36586L29.9241 3.78718C28.8401 3.00316 27.2889 2.0698 26.3731 1.69646C25.5508 1.36045 24.4107 1.04311 23.9435 1.04311C23.6819 1.04311 23.6632 1.02444 23.6632 0.763103C23.6632 0.371093 23.5697 0.277757 23.1025 0.147087C22.5605 -0.0582516 21.8503 -0.0395844 21.2522 0.147087ZM22.9343 0.52043C23.1025 0.557764 23.252 0.6511 23.252 0.707101C23.2894 1.43512 24.2612 13.8488 24.2986 13.8861C24.3173 13.9048 24.5789 13.9981 24.8593 14.0728C27.5319 14.7635 28.4476 18.1422 26.5039 20.1023C25.6629 20.9236 24.5042 21.297 23.3454 21.0916L22.7287 20.9796L22.0185 21.633C20.9719 22.6223 19.6263 23.4624 18.2059 23.985C17.7947 24.1344 17.6639 24.209 17.6639 24.3397C17.6639 24.6197 17.5144 24.8064 17.1406 24.9557C16.5425 25.1797 15.851 25.0864 15.3651 24.6944C15.1222 24.5077 15.1222 24.489 15.253 24.2464C15.4586 23.8917 16.1314 23.4624 16.5799 23.3877C16.9537 23.3317 17.1406 23.3877 17.4957 23.6304C17.6078 23.7237 17.7947 23.649 18.561 23.2757C19.8879 22.641 21.2522 21.6143 21.7942 20.849L21.9624 20.6063L21.4578 20.1209C20.8785 19.5423 20.5234 18.8702 20.3738 18.0862C20.1122 16.5555 20.9532 14.9315 22.3549 14.2781C22.7848 14.0728 22.8782 13.9981 22.8408 13.8488C22.8221 13.7554 22.3175 10.8994 21.7382 7.52061C21.1401 4.14186 20.6355 1.26712 20.6168 1.13645C20.5794 0.949775 20.6168 0.875106 20.8037 0.763103C21.2896 0.464429 22.2802 0.333758 22.9343 0.52043Z" fill="#00AB64"/>
<path d="M24.4107 16.0141C24.4481 16.5182 24.5042 16.6862 24.6911 16.8915C24.878 17.0968 24.9154 17.2275 24.9154 17.5635C24.9154 17.9555 24.8967 18.0115 24.5603 18.3102C24.2612 18.5715 23.6632 19.5236 23.6632 19.7476C23.6632 19.8596 24.5976 19.7102 24.9154 19.5422C25.3078 19.3369 25.719 18.9076 25.9433 18.4969C26.0554 18.2729 26.1115 18.0115 26.1115 17.5449C26.1115 16.8355 25.9807 16.4995 25.5134 16.0141C25.2331 15.6968 24.7098 15.3981 24.4668 15.3981C24.3734 15.3981 24.3734 15.4728 24.4107 16.0141Z" fill="#FF0000"/>
<path d="M22.8595 15.5848C22.5418 15.7528 22.112 16.2009 21.9251 16.5555C21.7756 16.8169 21.7382 17.0595 21.7382 17.5449C21.7382 18.2916 21.9064 18.6836 22.4297 19.1876C22.7287 19.4863 22.7474 19.4863 22.8595 19.3183C22.9343 19.2249 23.0464 18.9823 23.1399 18.7583C23.252 18.4596 23.252 18.3476 23.1773 18.2356C22.8408 17.7876 22.8408 17.2276 23.1586 16.8915C23.3268 16.7049 23.3268 16.6675 23.2333 16.0889C23.1772 15.7528 23.1025 15.4728 23.0838 15.4728C23.0651 15.4728 22.953 15.5288 22.8595 15.5848Z" fill="#FF0000"/>
<path d="M49.8628 15.8676H47.505L50.1615 7.97804H53.1481L55.8046 15.8676H53.4467L51.6862 10.1507H51.6233L49.8628 15.8676ZM49.4227 12.7549H53.8554V14.3575H49.4227V12.7549Z" fill="#00AB64"/>
<path d="M59.6763 15.8676H56.5797V7.97804H59.6449C60.4727 7.97804 61.188 8.13599 61.7905 8.45188C62.3957 8.7652 62.862 9.2172 63.1895 9.80789C63.5196 10.396 63.6846 11.101 63.6846 11.9228C63.6846 12.7446 63.5209 13.4509 63.1934 14.0416C62.8659 14.6297 62.4022 15.0817 61.8023 15.3976C61.2024 15.7109 60.4937 15.8676 59.6763 15.8676ZM58.7646 14.0493H59.5977C59.9959 14.0493 60.3352 13.9864 60.6155 13.8605C60.8985 13.7347 61.1133 13.5177 61.26 13.2095C61.4093 12.9013 61.484 12.4724 61.484 11.9228C61.484 11.3732 61.408 10.9443 61.2561 10.6361C61.1067 10.328 60.8867 10.1109 60.5959 9.9851C60.3077 9.85925 59.954 9.79633 59.5348 9.79633H58.7646V14.0493Z" fill="#00AB64"/>
<path d="M66.3883 7.97804L68.0388 13.5408H68.1016L69.7521 7.97804H72.22L69.5635 15.8676H66.5769L63.9204 7.97804H66.3883Z" fill="#00AB64"/>
<path d="M73.7673 15.8676H71.4095L74.066 7.97804H77.0526L79.7091 15.8676H77.3512L75.5907 10.1507H75.5278L73.7673 15.8676ZM73.3272 12.7549H77.7599V14.3575H73.3272V12.7549Z" fill="#00AB64"/>
<path d="M87.4477 7.97804V15.8676H85.6243L82.7163 11.7225H82.6691V15.8676H80.4842V7.97804H82.339L85.1999 12.1077H85.2628V7.97804H87.4477Z" fill="#00AB64"/>
<path d="M95.9948 10.9366H93.7785C93.7628 10.7568 93.7208 10.5938 93.6527 10.4474C93.5872 10.301 93.4955 10.1751 93.3776 10.0698C93.2624 9.96198 93.1222 9.8798 92.9572 9.8233C92.7921 9.76423 92.6048 9.7347 92.3952 9.7347C92.0284 9.7347 91.718 9.82202 91.4639 9.99665C91.2124 10.1713 91.0211 10.4217 90.8901 10.7479C90.7618 11.074 90.6976 11.4657 90.6976 11.9228C90.6976 12.4056 90.7631 12.8101 90.8941 13.1363C91.0277 13.4599 91.2202 13.7039 91.4717 13.8682C91.7232 14.03 92.0258 14.1109 92.3795 14.1109C92.5812 14.1109 92.762 14.0865 92.9218 14.0377C93.0816 13.9864 93.2205 13.9132 93.3383 13.8181C93.4562 13.7231 93.5519 13.6088 93.6252 13.4753C93.7012 13.3392 93.7523 13.1864 93.7785 13.0169L95.9948 13.0323C95.9686 13.3661 95.873 13.7064 95.708 14.0531C95.5429 14.3973 95.3084 14.7157 95.0045 15.0085C94.7033 15.2987 94.3299 15.5324 93.8846 15.7096C93.4392 15.8868 92.9218 15.9754 92.3323 15.9754C91.5935 15.9754 90.9307 15.8201 90.3439 15.5093C89.7597 15.1986 89.2973 14.7414 88.9567 14.1379C88.6187 13.5344 88.4498 12.796 88.4498 11.9228C88.4498 11.0445 88.6227 10.3048 88.9685 9.70388C89.3143 9.10035 89.7806 8.64449 90.3675 8.33631C90.9543 8.02555 91.6093 7.87018 92.3323 7.87018C92.8406 7.87018 93.3082 7.93824 93.7352 8.07435C94.1623 8.21047 94.5369 8.4095 94.8591 8.67146C95.1814 8.93085 95.4407 9.25059 95.6372 9.63068C95.8337 10.0108 95.9529 10.4461 95.9948 10.9366Z" fill="#00AB64"/>
<path d="M96.9861 15.8676V7.97804H102.786V9.70388H99.171V11.0599H102.488V12.7857H99.171V14.1417H102.771V15.8676H96.9861Z" fill="#00AB64"/>
<path d="M106.967 15.8676H103.87V7.97804H106.935C107.763 7.97804 108.478 8.13599 109.081 8.45188C109.686 8.7652 110.152 9.2172 110.48 9.80789C110.81 10.396 110.975 11.101 110.975 11.9228C110.975 12.7446 110.811 13.4509 110.484 14.0416C110.156 14.6297 109.693 15.0817 109.093 15.3976C108.493 15.7109 107.784 15.8676 106.967 15.8676ZM106.055 14.0493H106.888C107.286 14.0493 107.626 13.9864 107.906 13.8605C108.189 13.7347 108.404 13.5177 108.55 13.2095C108.7 12.9013 108.774 12.4724 108.774 11.9228C108.774 11.3732 108.698 10.9443 108.546 10.6361C108.397 10.328 108.177 10.1109 107.886 9.9851C107.598 9.85925 107.244 9.79633 106.825 9.79633H106.055V14.0493Z" fill="#00AB64"/>
<path d="M51.875 22.1945C51.9267 22.1945 51.9724 22.2153 52.0123 22.2568L52.3854 22.6779C52.1789 22.944 51.9243 23.1478 51.6216 23.2894C51.3213 23.431 50.96 23.5018 50.5377 23.5018C50.1599 23.5018 49.8197 23.4346 49.517 23.3004C49.2167 23.1661 48.9598 22.9794 48.7463 22.7401C48.5328 22.5009 48.3685 22.2153 48.2535 21.8833C48.1409 21.5513 48.0846 21.1887 48.0846 20.7957C48.0846 20.3978 48.1456 20.0341 48.2676 19.7045C48.3896 19.3725 48.5609 19.0869 48.7815 18.8476C49.0044 18.6084 49.2695 18.4229 49.5769 18.2911C49.8842 18.1568 50.2244 18.0897 50.5975 18.0897C50.9682 18.0897 51.2967 18.1531 51.5829 18.2801C51.8715 18.407 52.1167 18.573 52.3185 18.7781L52.0017 19.2358C51.983 19.2651 51.9583 19.2907 51.9278 19.3127C51.8997 19.3347 51.8598 19.3456 51.8082 19.3456C51.773 19.3456 51.7366 19.3359 51.6991 19.3164C51.6615 19.2944 51.6205 19.2687 51.5759 19.2395C51.5313 19.2077 51.4797 19.1735 51.421 19.1369C51.3624 19.1003 51.2943 19.0673 51.2169 19.0381C51.1395 19.0063 51.0492 18.9807 50.9459 18.9612C50.845 18.9392 50.7277 18.9282 50.594 18.9282C50.3664 18.9282 50.1576 18.9709 49.9675 19.0564C49.7798 19.1394 49.6179 19.2614 49.4818 19.4225C49.3457 19.5812 49.2402 19.7765 49.1651 20.0084C49.09 20.2379 49.0525 20.5003 49.0525 20.7957C49.0525 21.0935 49.0923 21.3584 49.1721 21.5903C49.2542 21.8222 49.3645 22.0175 49.5029 22.1762C49.6414 22.3349 49.8044 22.4569 49.9921 22.5424C50.1799 22.6254 50.3816 22.6669 50.5975 22.6669C50.7265 22.6669 50.8427 22.6596 50.9459 22.6449C51.0515 22.6303 51.1477 22.6071 51.2345 22.5753C51.3237 22.5436 51.407 22.5033 51.4844 22.4545C51.5642 22.4032 51.6428 22.341 51.7202 22.2677C51.7437 22.2458 51.7683 22.2287 51.7941 22.2165C51.8199 22.2018 51.8469 22.1945 51.875 22.1945Z" fill="#0973BA"/>
<path d="M54.8042 21.8393C54.5531 21.8515 54.3419 21.8747 54.1707 21.9089C53.9994 21.9406 53.8621 21.9821 53.7589 22.0334C53.6556 22.0847 53.5817 22.1445 53.5372 22.2128C53.4926 22.2812 53.4703 22.3556 53.4703 22.4362C53.4703 22.5949 53.5149 22.7084 53.604 22.7767C53.6955 22.8451 53.814 22.8793 53.9595 22.8793C54.1378 22.8793 54.2915 22.8463 54.4205 22.7804C54.5519 22.712 54.6798 22.6095 54.8042 22.4728V21.8393ZM52.8122 20.2098C53.2274 19.8144 53.7272 19.6166 54.3114 19.6166C54.5226 19.6166 54.7115 19.6532 54.8781 19.7265C55.0447 19.7973 55.1854 19.8974 55.3004 20.0267C55.4154 20.1537 55.5022 20.3063 55.5608 20.4845C55.6218 20.6627 55.6523 20.858 55.6523 21.0703V23.4432H55.2582C55.176 23.4432 55.1127 23.431 55.0681 23.4066C55.0235 23.3797 54.9883 23.3272 54.9625 23.2491L54.8851 22.9781C54.7936 23.0636 54.7044 23.1393 54.6176 23.2052C54.5308 23.2686 54.4405 23.3223 54.3466 23.3663C54.2528 23.4102 54.1519 23.4432 54.044 23.4652C53.9384 23.4896 53.8211 23.5018 53.692 23.5018C53.5395 23.5018 53.3987 23.481 53.2697 23.4395C53.1406 23.3956 53.0292 23.3309 52.9353 23.2454C52.8415 23.16 52.7687 23.0538 52.7171 22.9269C52.6655 22.7999 52.6397 22.6522 52.6397 22.4838C52.6397 22.3886 52.655 22.2946 52.6855 22.2018C52.716 22.1066 52.7652 22.0163 52.8333 21.9309C52.9037 21.8454 52.994 21.7649 53.1043 21.6892C53.2145 21.6135 53.3495 21.5476 53.509 21.4915C53.6709 21.4353 53.8586 21.3901 54.0721 21.356C54.2856 21.3193 54.5296 21.2974 54.8042 21.2901V21.0703C54.8042 20.8189 54.7525 20.6334 54.6493 20.5138C54.5461 20.3917 54.3971 20.3307 54.2023 20.3307C54.0616 20.3307 53.9442 20.3478 53.8504 20.3819C53.7589 20.4161 53.6779 20.4552 53.6075 20.4991C53.5372 20.5406 53.4726 20.5784 53.414 20.6126C53.3577 20.6468 53.2943 20.6639 53.2239 20.6639C53.1629 20.6639 53.1113 20.648 53.0691 20.6163C53.0268 20.5821 52.9928 20.543 52.967 20.4991L52.8122 20.2098Z" fill="#0973BA"/>
<path d="M57.3509 18.0018V23.4432H56.4816V18.0018H57.3509Z" fill="#0973BA"/>
<path d="M59.0969 18.0018V23.4432H58.2276V18.0018H59.0969Z" fill="#0973BA"/>
<path d="M59.9348 20.8543H61.7579V21.6086H59.9348V20.8543Z" fill="#0973BA"/>
<path d="M65.1756 20.4808C65.1498 20.515 65.124 20.5418 65.0982 20.5614C65.0747 20.5809 65.0395 20.5907 64.9926 20.5907C64.948 20.5907 64.9046 20.5772 64.8624 20.5504C64.8202 20.5211 64.7697 20.4893 64.7111 20.4552C64.6524 20.4185 64.582 20.3868 64.4999 20.36C64.4201 20.3307 64.3204 20.316 64.2007 20.316C64.0482 20.316 63.9145 20.3453 63.7995 20.4039C63.6846 20.46 63.5884 20.5418 63.5109 20.6492C63.4358 20.7567 63.3795 20.8873 63.342 21.0411C63.3045 21.1924 63.2857 21.3645 63.2857 21.5574C63.2857 21.7575 63.3056 21.9357 63.3455 22.092C63.3877 22.2482 63.4476 22.38 63.525 22.4875C63.6024 22.5924 63.6963 22.673 63.8066 22.7291C63.9168 22.7828 64.0412 22.8097 64.1796 22.8097C64.3181 22.8097 64.4295 22.7926 64.514 22.7584C64.6008 22.7218 64.6735 22.6828 64.7322 22.6413C64.7908 22.5973 64.8413 22.5583 64.8835 22.5241C64.9281 22.4875 64.9774 22.4691 65.0313 22.4691C65.1017 22.4691 65.1545 22.4972 65.1897 22.5534L65.4396 22.8829C65.3434 23.0001 65.239 23.099 65.1264 23.1795C65.0137 23.2577 64.8964 23.3211 64.7744 23.3699C64.6547 23.4163 64.5304 23.4493 64.4013 23.4688C64.2746 23.4883 64.1479 23.4981 64.0212 23.4981C63.7984 23.4981 63.5884 23.4554 63.3913 23.3699C63.1942 23.2821 63.0217 23.1551 62.8739 22.9891C62.7261 22.8231 62.6088 22.6205 62.522 22.3813C62.4375 22.1396 62.3953 21.865 62.3953 21.5574C62.3953 21.2815 62.4328 21.0264 62.5079 20.792C62.5853 20.5553 62.6979 20.3514 62.8458 20.1805C62.9936 20.0072 63.1766 19.8717 63.3948 19.7741C63.613 19.6764 63.864 19.6276 64.1479 19.6276C64.4178 19.6276 64.6536 19.6728 64.8554 19.7631C65.0595 19.8534 65.2425 19.9828 65.4044 20.1512L65.1756 20.4808Z" fill="#0973BA"/>
<path d="M68.249 21.1326C68.249 21.0154 68.2326 20.9056 68.1998 20.803C68.1693 20.6981 68.1223 20.6065 68.059 20.5284C67.9956 20.4503 67.9147 20.3893 67.8161 20.3453C67.7199 20.2989 67.6073 20.2757 67.4783 20.2757C67.2272 20.2757 67.029 20.3502 66.8835 20.4991C66.7404 20.648 66.6489 20.8592 66.609 21.1326H68.249ZM66.5914 21.6782C66.6055 21.8711 66.6383 22.0383 66.6899 22.1799C66.7415 22.319 66.8096 22.435 66.894 22.5277C66.9785 22.6181 67.0782 22.6864 67.1932 22.7328C67.3105 22.7767 67.4396 22.7987 67.5803 22.7987C67.7211 22.7987 67.842 22.7816 67.9428 22.7474C68.0461 22.7133 68.1352 22.6754 68.2103 22.6339C68.2877 22.5924 68.3546 22.5546 68.4109 22.5204C68.4696 22.4862 68.5259 22.4691 68.5799 22.4691C68.6526 22.4691 68.7066 22.4972 68.7418 22.5534L68.9916 22.8829C68.8954 23.0001 68.7875 23.099 68.6678 23.1795C68.5482 23.2577 68.4227 23.3211 68.2913 23.3699C68.1622 23.4163 68.0297 23.4493 67.8936 23.4688C67.7598 23.4883 67.6296 23.4981 67.5029 23.4981C67.2519 23.4981 67.0184 23.4554 66.8025 23.3699C66.5867 23.2821 66.399 23.1539 66.2394 22.9855C66.0799 22.8146 65.9544 22.6046 65.8629 22.3556C65.7713 22.1042 65.7256 21.8137 65.7256 21.4841C65.7256 21.2278 65.7655 20.9873 65.8453 20.7628C65.925 20.5357 66.0388 20.3392 66.1866 20.1732C66.3368 20.0048 66.5186 19.8717 66.7322 19.7741C66.948 19.6764 67.1909 19.6276 67.4607 19.6276C67.6883 19.6276 67.8983 19.6654 68.0907 19.7411C68.2831 19.8168 68.4485 19.9279 68.5869 20.0743C68.7253 20.2184 68.8333 20.3966 68.9107 20.609C68.9905 20.8189 69.0303 21.0594 69.0303 21.3303C69.0303 21.467 69.0163 21.5598 68.9881 21.6086C68.96 21.655 68.906 21.6782 68.8262 21.6782H66.5914Z" fill="#0973BA"/>
<path d="M70.4957 20.1476C70.5684 20.0719 70.6447 20.0023 70.7245 19.9389C70.8066 19.8729 70.8922 19.818 70.9814 19.7741C71.0729 19.7277 71.1703 19.6923 71.2735 19.6679C71.3767 19.641 71.4894 19.6276 71.6114 19.6276C71.8085 19.6276 71.9833 19.663 72.1358 19.7338C72.2883 19.8021 72.415 19.8998 72.5159 20.0267C72.6191 20.1512 72.6965 20.3014 72.7481 20.4771C72.8021 20.6505 72.8291 20.8421 72.8291 21.052V23.4432H71.9598V21.052C71.9598 20.8226 71.9093 20.6456 71.8085 20.5211C71.7076 20.3941 71.5539 20.3307 71.3474 20.3307C71.1972 20.3307 71.0565 20.3661 70.9251 20.4369C70.7937 20.5077 70.6693 20.6041 70.552 20.7261V23.4432H69.6827V19.6862H70.2141C70.3268 19.6862 70.4007 19.7411 70.4359 19.851L70.4957 20.1476Z" fill="#0973BA"/>
<path d="M74.8114 23.5018C74.497 23.5018 74.2553 23.4102 74.0864 23.2271C73.9198 23.0416 73.8365 22.7865 73.8365 22.4618V20.3636H73.4669C73.42 20.3636 73.3801 20.3478 73.3473 20.316C73.3144 20.2843 73.298 20.2367 73.298 20.1732V19.8144L73.8787 19.7155L74.0617 18.6902C74.0735 18.6414 74.0957 18.6035 74.1286 18.5767C74.1614 18.5498 74.2037 18.5364 74.2553 18.5364H74.7058V19.7191H75.6701V20.3636H74.7058V22.3996C74.7058 22.5168 74.7328 22.6083 74.7867 22.6742C74.843 22.7401 74.9193 22.7731 75.0155 22.7731C75.0695 22.7731 75.114 22.767 75.1492 22.7548C75.1868 22.7401 75.2184 22.7255 75.2443 22.7108C75.2724 22.6962 75.297 22.6828 75.3182 22.6705C75.3393 22.6559 75.3604 22.6486 75.3815 22.6486C75.4073 22.6486 75.4284 22.6559 75.4449 22.6705C75.4613 22.6828 75.4789 22.7023 75.4977 22.7291L75.7581 23.1685C75.6314 23.2784 75.4859 23.3614 75.3217 23.4175C75.1574 23.4737 74.9873 23.5018 74.8114 23.5018Z" fill="#0973BA"/>
<path d="M78.5255 21.1326C78.5255 21.0154 78.5091 20.9056 78.4763 20.803C78.4458 20.6981 78.3988 20.6065 78.3355 20.5284C78.2721 20.4503 78.1912 20.3893 78.0926 20.3453C77.9964 20.2989 77.8838 20.2757 77.7548 20.2757C77.5037 20.2757 77.3055 20.3502 77.16 20.4991C77.0169 20.648 76.9254 20.8592 76.8855 21.1326H78.5255ZM76.8679 21.6782C76.8819 21.8711 76.9148 22.0383 76.9664 22.1799C77.018 22.319 77.0861 22.435 77.1705 22.5277C77.255 22.6181 77.3547 22.6864 77.4697 22.7328C77.587 22.7767 77.7161 22.7987 77.8568 22.7987C77.9976 22.7987 78.1184 22.7816 78.2193 22.7474C78.3226 22.7133 78.4117 22.6754 78.4868 22.6339C78.5642 22.5924 78.6311 22.5546 78.6874 22.5204C78.7461 22.4862 78.8024 22.4691 78.8564 22.4691C78.9291 22.4691 78.9831 22.4972 79.0182 22.5534L79.2681 22.8829C79.1719 23.0001 79.064 23.099 78.9443 23.1795C78.8247 23.2577 78.6992 23.3211 78.5678 23.3699C78.4387 23.4163 78.3062 23.4493 78.1701 23.4688C78.0363 23.4883 77.9061 23.4981 77.7794 23.4981C77.5284 23.4981 77.2949 23.4554 77.079 23.3699C76.8632 23.2821 76.6755 23.1539 76.5159 22.9855C76.3564 22.8146 76.2309 22.6046 76.1393 22.3556C76.0478 22.1042 76.0021 21.8137 76.0021 21.4841C76.0021 21.2278 76.042 20.9873 76.1217 20.7628C76.2015 20.5357 76.3153 20.3392 76.4631 20.1732C76.6133 20.0048 76.7951 19.8717 77.0086 19.7741C77.2245 19.6764 77.4673 19.6276 77.7372 19.6276C77.9648 19.6276 78.1748 19.6654 78.3672 19.7411C78.5595 19.8168 78.725 19.9279 78.8634 20.0743C79.0018 20.2184 79.1098 20.3966 79.1872 20.609C79.267 20.8189 79.3068 21.0594 79.3068 21.3303C79.3068 21.467 79.2928 21.5598 79.2646 21.6086C79.2365 21.655 79.1825 21.6782 79.1027 21.6782H76.8679Z" fill="#0973BA"/>
<path d="M80.7792 20.338C80.8919 20.1134 81.0256 19.9376 81.1805 19.8107C81.3353 19.6813 81.5183 19.6166 81.7295 19.6166C81.8961 19.6166 82.0298 19.6545 82.1307 19.7301L82.0744 20.4076C82.0627 20.4515 82.0451 20.4832 82.0216 20.5028C82.0005 20.5199 81.9712 20.5284 81.9336 20.5284C81.8984 20.5284 81.8456 20.5223 81.7752 20.5101C81.7072 20.4979 81.6403 20.4918 81.5746 20.4918C81.4784 20.4918 81.3928 20.5064 81.3177 20.5357C81.2426 20.565 81.1746 20.6077 81.1136 20.6639C81.0549 20.7176 81.0021 20.7835 80.9552 20.8616C80.9106 20.9397 80.8684 21.0288 80.8285 21.1289V23.4432H79.9592V19.6862H80.4695C80.5587 19.6862 80.6209 19.7033 80.6561 19.7375C80.6912 19.7692 80.7147 19.8278 80.7264 19.9132L80.7792 20.338Z" fill="#0973BA"/>
<path d="M86.3486 20.4185C86.3251 20.4576 86.3005 20.4857 86.2747 20.5028C86.2489 20.5174 86.216 20.5247 86.1761 20.5247C86.1339 20.5247 86.0882 20.5125 86.0389 20.4881C85.992 20.4637 85.9368 20.4369 85.8735 20.4076C85.8101 20.3758 85.7374 20.3478 85.6553 20.3233C85.5755 20.2989 85.4805 20.2867 85.3702 20.2867C85.1989 20.2867 85.064 20.3246 84.9654 20.4002C84.8692 20.4759 84.8212 20.5748 84.8212 20.6968C84.8212 20.7774 84.8458 20.8458 84.8951 20.9019C84.9467 20.9556 85.0135 21.0032 85.0957 21.0447C85.1801 21.0862 85.2752 21.1241 85.3807 21.1582C85.4863 21.19 85.5931 21.2254 85.701 21.2644C85.8113 21.3035 85.9192 21.3486 86.0248 21.3999C86.1304 21.4487 86.2242 21.5122 86.3064 21.5903C86.3908 21.666 86.4577 21.7575 86.507 21.865C86.5586 21.9724 86.5844 22.1017 86.5844 22.2531C86.5844 22.4337 86.5527 22.601 86.4894 22.7548C86.4284 22.9061 86.3369 23.0379 86.2148 23.1502C86.0928 23.2601 85.9415 23.3468 85.7608 23.4102C85.5825 23.4713 85.376 23.5018 85.1414 23.5018C85.0171 23.5018 84.8951 23.4896 84.7754 23.4652C84.6581 23.4432 84.5443 23.4114 84.434 23.3699C84.3261 23.3284 84.2252 23.2796 84.1313 23.2235C84.0398 23.1673 83.9589 23.1063 83.8885 23.0404L84.0891 22.6962C84.1149 22.6547 84.1454 22.6229 84.1806 22.601C84.2158 22.579 84.2604 22.568 84.3144 22.568C84.3683 22.568 84.4188 22.5839 84.4657 22.6156C84.515 22.6474 84.5713 22.6815 84.6346 22.7181C84.698 22.7548 84.7719 22.7889 84.8563 22.8207C84.9432 22.8524 85.0523 22.8683 85.1837 22.8683C85.2869 22.8683 85.3749 22.8561 85.4476 22.8317C85.5227 22.8048 85.5837 22.7706 85.6306 22.7291C85.6799 22.6876 85.7151 22.64 85.7362 22.5863C85.7597 22.5302 85.7714 22.4728 85.7714 22.4142C85.7714 22.3263 85.7456 22.2543 85.694 22.1982C85.6447 22.142 85.5778 22.0932 85.4934 22.0517C85.4112 22.0102 85.3162 21.9736 85.2083 21.9419C85.1027 21.9077 84.9936 21.8711 84.881 21.832C84.7707 21.7929 84.6616 21.7478 84.5537 21.6965C84.4481 21.6428 84.3531 21.5757 84.2686 21.4951C84.1865 21.4146 84.1196 21.3157 84.068 21.1985C84.0187 21.0813 83.9941 20.9397 83.9941 20.7737C83.9941 20.6199 84.0234 20.4735 84.0821 20.3343C84.1407 20.1952 84.2264 20.0743 84.339 19.9718C84.454 19.8668 84.5959 19.7838 84.7648 19.7228C84.9361 19.6593 85.1332 19.6276 85.3561 19.6276C85.6048 19.6276 85.8312 19.6703 86.0354 19.7558C86.2395 19.8412 86.4096 19.9535 86.5457 20.0926L86.3486 20.4185Z" fill="#0973BA"/>
<path d="M88.8365 19.6276C89.104 19.6276 89.3468 19.6728 89.565 19.7631C89.7856 19.8534 89.9733 19.9816 90.1281 20.1476C90.2853 20.3136 90.4062 20.5162 90.4906 20.7554C90.5751 20.9947 90.6173 21.262 90.6173 21.5574C90.6173 21.8552 90.5751 22.1237 90.4906 22.363C90.4062 22.6022 90.2853 22.806 90.1281 22.9745C89.9733 23.1429 89.7856 23.2723 89.565 23.3626C89.3468 23.4529 89.104 23.4981 88.8365 23.4981C88.5667 23.4981 88.3215 23.4529 88.1009 23.3626C87.8804 23.2723 87.6915 23.1429 87.5343 22.9745C87.3795 22.806 87.2586 22.6022 87.1718 22.363C87.0873 22.1237 87.0451 21.8552 87.0451 21.5574C87.0451 21.262 87.0873 20.9947 87.1718 20.7554C87.2586 20.5162 87.3795 20.3136 87.5343 20.1476C87.6915 19.9816 87.8804 19.8534 88.1009 19.7631C88.3215 19.6728 88.5667 19.6276 88.8365 19.6276ZM88.8365 22.8024C89.1368 22.8024 89.3586 22.6974 89.5017 22.4875C89.6471 22.2775 89.7199 21.9699 89.7199 21.5647C89.7199 21.1594 89.6471 20.8506 89.5017 20.6383C89.3586 20.4259 89.1368 20.3197 88.8365 20.3197C88.5315 20.3197 88.3051 20.4271 88.1572 20.6419C88.0118 20.8543 87.939 21.1619 87.939 21.5647C87.939 21.9675 88.0118 22.2751 88.1572 22.4875C88.3051 22.6974 88.5315 22.8024 88.8365 22.8024Z" fill="#0973BA"/>
<path d="M94.6508 20.3636V22.3996C94.6508 22.5168 94.6789 22.6083 94.7353 22.6742C94.7916 22.7401 94.8666 22.7731 94.9605 22.7731C95.0145 22.7731 95.059 22.767 95.0942 22.7548C95.1318 22.7401 95.1635 22.7255 95.1893 22.7108C95.2174 22.6962 95.2421 22.6828 95.2632 22.6705C95.2843 22.6559 95.3054 22.6486 95.3265 22.6486C95.3523 22.6486 95.3734 22.6559 95.3899 22.6705C95.4063 22.6828 95.4239 22.7023 95.4427 22.7291L95.7031 23.1685C95.5764 23.2784 95.4309 23.3614 95.2667 23.4175C95.1048 23.4737 94.9359 23.5018 94.7599 23.5018C94.4455 23.5018 94.2038 23.4102 94.0349 23.2271C93.866 23.0416 93.7815 22.7865 93.7815 22.4618V20.3636H92.3139V23.4432H91.4446V20.3673L91.1313 20.316C91.0633 20.3014 91.0082 20.277 90.9659 20.2428C90.926 20.2062 90.9061 20.1549 90.9061 20.089V19.7191H91.4446V19.4409C91.4446 19.226 91.4751 19.0332 91.5361 18.8623C91.5994 18.6914 91.6886 18.5462 91.8036 18.4265C91.9209 18.3069 92.0628 18.2154 92.2294 18.1519C92.396 18.0884 92.5837 18.0567 92.7925 18.0567C92.9591 18.0567 93.114 18.0799 93.2571 18.1263L93.2395 18.5803C93.2371 18.6145 93.2278 18.6426 93.2113 18.6646C93.1949 18.6841 93.1726 18.7 93.1445 18.7122C93.1187 18.7219 93.0882 18.7292 93.053 18.7341C93.0178 18.7366 92.9802 18.7378 92.9403 18.7378C92.8371 18.7378 92.7444 18.75 92.6623 18.7744C92.5825 18.7964 92.5145 18.8367 92.4582 18.8952C92.4019 18.9514 92.3585 19.0271 92.328 19.1223C92.2998 19.215 92.2857 19.331 92.2857 19.4701V19.7191H93.8202L94.0067 18.6902C94.0185 18.6414 94.0407 18.6035 94.0736 18.5767C94.1064 18.5498 94.1487 18.5364 94.2003 18.5364H94.6508V19.7191H95.6151V20.3636H94.6508Z" fill="#0973BA"/>
<path d="M101.324 19.6862L100.177 23.4432H99.4797C99.3999 23.4432 99.3448 23.3895 99.3143 23.2821L98.6667 21.1106C98.6456 21.0374 98.6256 20.9654 98.6069 20.8946C98.5904 20.8213 98.5764 20.7481 98.5646 20.6749C98.5505 20.7481 98.5341 20.8226 98.5154 20.8982C98.4989 20.9715 98.4802 21.0447 98.459 21.1179L97.8009 23.2821C97.7728 23.3895 97.7106 23.4432 97.6144 23.4432H96.9457L95.8019 19.6862H96.4952C96.5585 19.6862 96.6125 19.7021 96.6571 19.7338C96.7017 19.7655 96.731 19.8058 96.7451 19.8546L97.2624 21.8613C97.2882 21.9711 97.3105 22.0786 97.3293 22.1835C97.3504 22.2885 97.368 22.3935 97.3821 22.4984C97.4079 22.3935 97.4349 22.2885 97.463 22.1835C97.4935 22.0786 97.5252 21.9711 97.5581 21.8613L98.1564 19.8473C98.1705 19.7985 98.1974 19.7582 98.2373 19.7265C98.2795 19.6947 98.33 19.6789 98.3887 19.6789H98.7723C98.8333 19.6789 98.8849 19.6947 98.9271 19.7265C98.9717 19.7582 99.001 19.7985 99.0151 19.8473L99.5958 21.8613C99.6263 21.9711 99.6545 22.0798 99.6803 22.1872C99.7084 22.2922 99.7354 22.3971 99.7612 22.5021C99.7917 22.2946 99.8351 22.081 99.8915 21.8613L100.423 19.8546C100.439 19.8058 100.469 19.7655 100.511 19.7338C100.553 19.7021 100.604 19.6862 100.662 19.6862H101.324Z" fill="#0973BA"/>
<path d="M103.678 21.8393C103.427 21.8515 103.215 21.8747 103.044 21.9089C102.873 21.9406 102.736 21.9821 102.632 22.0334C102.529 22.0847 102.455 22.1445 102.411 22.2128C102.366 22.2812 102.344 22.3556 102.344 22.4362C102.344 22.5949 102.388 22.7084 102.478 22.7767C102.569 22.8451 102.688 22.8793 102.833 22.8793C103.011 22.8793 103.165 22.8463 103.294 22.7804C103.425 22.712 103.553 22.6095 103.678 22.4728V21.8393ZM101.686 20.2098C102.101 19.8144 102.601 19.6166 103.185 19.6166C103.396 19.6166 103.585 19.6532 103.752 19.7265C103.918 19.7973 104.059 19.8974 104.174 20.0267C104.289 20.1537 104.376 20.3063 104.434 20.4845C104.495 20.6627 104.526 20.858 104.526 21.0703V23.4432H104.132C104.05 23.4432 103.986 23.431 103.942 23.4066C103.897 23.3797 103.862 23.3272 103.836 23.2491L103.759 22.9781C103.667 23.0636 103.578 23.1393 103.491 23.2052C103.404 23.2686 103.314 23.3223 103.22 23.3663C103.126 23.4102 103.025 23.4432 102.917 23.4652C102.812 23.4896 102.695 23.5018 102.566 23.5018C102.413 23.5018 102.272 23.481 102.143 23.4395C102.014 23.3956 101.903 23.3309 101.809 23.2454C101.715 23.16 101.642 23.0538 101.591 22.9269C101.539 22.7999 101.513 22.6522 101.513 22.4838C101.513 22.3886 101.528 22.2946 101.559 22.2018C101.589 22.1066 101.639 22.0163 101.707 21.9309C101.777 21.8454 101.867 21.7649 101.978 21.6892C102.088 21.6135 102.223 21.5476 102.383 21.4915C102.544 21.4353 102.732 21.3901 102.946 21.356C103.159 21.3193 103.403 21.2974 103.678 21.2901V21.0703C103.678 20.8189 103.626 20.6334 103.523 20.5138C103.42 20.3917 103.271 20.3307 103.076 20.3307C102.935 20.3307 102.818 20.3478 102.724 20.3819C102.632 20.4161 102.551 20.4552 102.481 20.4991C102.411 20.5406 102.346 20.5784 102.287 20.6126C102.231 20.6468 102.168 20.6639 102.097 20.6639C102.036 20.6639 101.985 20.648 101.943 20.6163C101.9 20.5821 101.866 20.543 101.841 20.4991L101.686 20.2098Z" fill="#0973BA"/>
<path d="M106.165 20.338C106.277 20.1134 106.411 19.9376 106.566 19.8107C106.721 19.6813 106.904 19.6166 107.115 19.6166C107.281 19.6166 107.415 19.6545 107.516 19.7301L107.46 20.4076C107.448 20.4515 107.43 20.4832 107.407 20.5028C107.386 20.5199 107.357 20.5284 107.319 20.5284C107.284 20.5284 107.231 20.5223 107.161 20.5101C107.093 20.4979 107.026 20.4918 106.96 20.4918C106.864 20.4918 106.778 20.5064 106.703 20.5357C106.628 20.565 106.56 20.6077 106.499 20.6639C106.44 20.7176 106.387 20.7835 106.341 20.8616C106.296 20.9397 106.254 21.0288 106.214 21.1289V23.4432H105.345V19.6862H105.855C105.944 19.6862 106.006 19.7033 106.041 19.7375C106.077 19.7692 106.1 19.8278 106.112 19.9132L106.165 20.338Z" fill="#0973BA"/>
<path d="M110.194 21.1326C110.194 21.0154 110.177 20.9056 110.144 20.803C110.114 20.6981 110.067 20.6065 110.004 20.5284C109.94 20.4503 109.859 20.3893 109.761 20.3453C109.665 20.2989 109.552 20.2757 109.423 20.2757C109.172 20.2757 108.974 20.3502 108.828 20.4991C108.685 20.648 108.593 20.8592 108.554 21.1326H110.194ZM108.536 21.6782C108.55 21.8711 108.583 22.0383 108.635 22.1799C108.686 22.319 108.754 22.435 108.839 22.5277C108.923 22.6181 109.023 22.6864 109.138 22.7328C109.255 22.7767 109.384 22.7987 109.525 22.7987C109.666 22.7987 109.787 22.7816 109.887 22.7474C109.991 22.7133 110.08 22.6754 110.155 22.6339C110.232 22.5924 110.299 22.5546 110.356 22.5204C110.414 22.4862 110.47 22.4691 110.524 22.4691C110.597 22.4691 110.651 22.4972 110.686 22.5534L110.936 22.8829C110.84 23.0001 110.732 23.099 110.612 23.1795C110.493 23.2577 110.367 23.3211 110.236 23.3699C110.107 23.4163 109.974 23.4493 109.838 23.4688C109.704 23.4883 109.574 23.4981 109.448 23.4981C109.196 23.4981 108.963 23.4554 108.747 23.3699C108.531 23.2821 108.344 23.1539 108.184 22.9855C108.024 22.8146 107.899 22.6046 107.807 22.3556C107.716 22.1042 107.67 21.8137 107.67 21.4841C107.67 21.2278 107.71 20.9873 107.79 20.7628C107.87 20.5357 107.983 20.3392 108.131 20.1732C108.281 20.0048 108.463 19.8717 108.677 19.7741C108.893 19.6764 109.135 19.6276 109.405 19.6276C109.633 19.6276 109.843 19.6654 110.035 19.7411C110.228 19.8168 110.393 19.9279 110.532 20.0743C110.67 20.2184 110.778 20.3966 110.855 20.609C110.935 20.8189 110.975 21.0594 110.975 21.3303C110.975 21.467 110.961 21.5598 110.933 21.6086C110.905 21.655 110.851 21.6782 110.771 21.6782H108.536Z" fill="#0973BA"/>
</g>
<defs>
<clipPath id="clip0_236_2656">
<rect width="111" height="33" fill="white"/>
</clipPath>
</defs>
</svg>
