<svg width="133" height="116" viewBox="0 0 133 116" fill="none" xmlns="http://www.w3.org/2000/svg">
<rect width="132.206" height="116" rx="10" fill="white"/>
<path fill-rule="evenodd" clip-rule="evenodd" d="M34.6733 47.4414C34.6733 45.5855 33.7642 44.374 31.9459 43.8327C30.1276 43.2913 28.4813 43.0078 26.9578 43.0078C25.3197 43.0078 23.8536 43.257 22.5595 43.7553C21.2818 44.2451 20.3481 45.1988 19.7584 46.5908H8.0132C8.47186 42.7758 10.11 39.631 12.9275 37.1565C16.089 34.3382 20.5856 32.9291 26.4173 32.9291C32.9779 32.9291 37.8922 34.0633 41.1602 36.4089C43.3962 38.0071 44.9933 40.4301 45.7551 42.8789C40.8899 43.9358 38.5556 46.7712 34.6242 47.9569C34.747 47.6218 34.6733 47.8023 34.6733 47.4414ZM38.2362 48.2147C40.8653 46.797 43.1013 45.7144 44.8705 44.9153C46.7871 44.0389 48.7528 43.2656 50.8659 42.75C54.0111 41.9509 56.9597 41.7447 60.2523 41.7447V50.3026C57.5494 50.3026 55.166 50.4831 52.7334 51.0759C50.4728 51.643 48.3596 52.4679 46.2465 53.4216V63.4746C46.2465 68.3721 45.4111 72.2129 43.7156 74.971C42.012 77.7205 39.9889 79.7139 37.6465 80.9512C35.1893 82.2916 32.5847 83.125 29.8327 83.4516C27.0807 83.7351 24.6481 83.8898 22.535 83.8898C18.3332 83.8898 14.6475 82.704 11.4778 80.3068C8.31624 77.9181 6.73547 73.9571 6.73547 68.4237C6.73547 63.2683 8.1852 59.5823 11.0601 57.3655C17.6944 52.2101 30.447 52.0554 38.2362 48.2147ZM25.4344 61.3351C24.4515 61.5585 23.9601 61.6702 23.9601 61.6702C21.847 62.2888 20.3153 63.0879 19.3652 64.0674C18.5544 65.4078 18.1367 66.7482 18.1367 68.1144C18.1367 69.9445 18.6772 71.4138 19.7338 72.5222C20.7904 73.5017 22.3138 73.9915 24.3041 73.9915C27.5721 73.9915 30.1767 73.012 32.0441 71.0529C33.9116 69.0939 34.8453 66.3873 34.8453 62.959V58.7316C32.0441 59.8142 28.9727 60.768 25.4344 61.3351Z" fill="#0973B9"/>
<path d="M66.2231 82.8845H58.2865C55.9768 82.8845 54.0848 80.8997 54.0848 78.4766V32.9291H62.0214C64.3311 32.9291 66.2231 34.8881 66.2231 37.3111V41.7447H71.6534V45.0699C71.6534 47.9569 69.3928 50.3026 66.6408 50.3026H66.2231V82.8845Z" fill="#0973B9"/>
<path d="M79.7389 56.3041H77.0483V41.5284H79.7391L79.7389 37.9243H77.0483C75.1541 37.9245 73.6129 39.5412 73.6129 41.5283V56.3038C73.6129 58.2909 75.154 59.9071 77.0483 59.9071H79.7391L79.7389 56.3041Z" fill="#00AB64"/>
<path fill-rule="evenodd" clip-rule="evenodd" d="M118.944 34.7825C118.944 33.7941 118.18 32.9919 117.237 32.9919H81.2824C80.34 32.9919 79.5756 33.7942 79.5756 34.7825V44.0928C79.5756 45.0818 80.34 45.8832 81.2824 45.8832H117.237C118.18 45.8832 118.944 45.0818 118.944 44.0928V34.7825ZM84.8667 39.438C84.8667 40.9867 86.0636 42.2429 87.5406 42.2429C89.0172 42.2429 90.2142 40.9867 90.2142 39.438C90.2142 37.8886 89.0172 36.6329 87.5406 36.6329C86.0638 36.6329 84.8667 37.8886 84.8667 39.438ZM100.539 42.5707C101.247 42.5707 101.82 41.9695 101.82 41.2283V37.6477C101.82 36.9057 101.246 36.3046 100.539 36.3046C99.8324 36.3046 99.2595 36.9059 99.2595 37.6477V41.2283C99.2595 41.9696 99.8326 42.5707 100.539 42.5707ZM106.229 42.5707C106.936 42.5707 107.509 41.9695 107.509 41.2283V37.6477C107.509 36.9057 106.936 36.3046 106.229 36.3046C105.522 36.3046 104.949 36.9059 104.949 37.6477V41.2283C104.949 41.9696 105.522 42.5707 106.229 42.5707ZM111.918 42.5707C112.625 42.5707 113.198 41.9695 113.198 41.2283V37.6477C113.198 36.9057 112.625 36.3046 111.918 36.3046C111.211 36.3046 110.638 36.9059 110.638 37.6477V41.2283C110.638 41.9696 111.211 42.5707 111.918 42.5707Z" fill="#00AB64"/>
<path d="M118.878 61.9772H121.569V76.7529H118.878L118.878 80.357H121.569C123.463 80.3569 125.004 78.7401 125.004 76.7531V61.9775C125.004 59.9905 123.463 58.3743 121.569 58.3743H118.878L118.878 61.9772Z" fill="#00AB64"/>
<path fill-rule="evenodd" clip-rule="evenodd" d="M118.944 53.5793C118.944 52.5908 118.18 51.7887 117.237 51.7887H81.2824C80.34 51.7887 79.5756 52.591 79.5756 53.5793V62.8896C79.5756 63.8785 80.34 64.68 81.2824 64.68H117.237C118.18 64.68 118.944 63.8785 118.944 62.8896V53.5793ZM84.8667 58.2348C84.8667 59.7835 86.0636 61.0397 87.5406 61.0397C89.0172 61.0397 90.2142 59.7835 90.2142 58.2348C90.2142 56.6854 89.0172 55.4297 87.5406 55.4297C86.0638 55.4297 84.8667 56.6854 84.8667 58.2348ZM100.539 61.3675C101.247 61.3675 101.82 60.7662 101.82 60.025V56.4445C101.82 55.7025 101.246 55.1014 100.539 55.1014C99.8324 55.1014 99.2595 55.7026 99.2595 56.4445V60.025C99.2595 60.7664 99.8326 61.3675 100.539 61.3675ZM106.229 61.3675C106.936 61.3675 107.509 60.7662 107.509 60.025V56.4445C107.509 55.7025 106.936 55.1014 106.229 55.1014C105.522 55.1014 104.949 55.7026 104.949 56.4445V60.025C104.949 60.7664 105.522 61.3675 106.229 61.3675ZM111.918 61.3675C112.625 61.3675 113.198 60.7662 113.198 60.025V56.4445C113.198 55.7025 112.625 55.1014 111.918 55.1014C111.211 55.1014 110.638 55.7026 110.638 56.4445V60.025C110.638 60.7664 111.211 61.3675 111.918 61.3675Z" fill="#00AB64"/>
<path fill-rule="evenodd" clip-rule="evenodd" d="M118.944 72.2961C118.944 71.3077 118.18 70.5056 117.237 70.5056H81.2824C80.34 70.5056 79.5756 71.3078 79.5756 72.2961V81.6064C79.5756 82.5954 80.34 83.3969 81.2824 83.3969H117.237C118.18 83.3969 118.944 82.5954 118.944 81.6064V72.2961ZM84.8667 76.9516C84.8667 78.5004 86.0636 79.7566 87.5406 79.7566C89.0172 79.7566 90.2142 78.5004 90.2142 76.9516C90.2142 75.4022 89.0172 74.1466 87.5406 74.1466C86.0638 74.1466 84.8667 75.4022 84.8667 76.9516ZM100.539 80.0844C101.247 80.0844 101.82 79.4831 101.82 78.7419V75.1613C101.82 74.4194 101.246 73.8182 100.539 73.8182C99.8324 73.8182 99.2595 74.4195 99.2595 75.1613V78.7419C99.2595 79.4832 99.8326 80.0844 100.539 80.0844ZM106.229 80.0844C106.936 80.0844 107.509 79.4831 107.509 78.7419V75.1613C107.509 74.4194 106.936 73.8182 106.229 73.8182C105.522 73.8182 104.949 74.4195 104.949 75.1613V78.7419C104.949 79.4832 105.522 80.0844 106.229 80.0844ZM111.918 80.0844C112.625 80.0844 113.198 79.4831 113.198 78.7419V75.1613C113.198 74.4194 112.625 73.8182 111.918 73.8182C111.211 73.8182 110.638 74.4195 110.638 75.1613V78.7419C110.638 79.4832 111.211 80.0844 111.918 80.0844Z" fill="#00AB64"/>
</svg>
