<svg width="194" height="101" viewBox="0 0 194 101" fill="none" xmlns="http://www.w3.org/2000/svg">
<path fill-rule="evenodd" clip-rule="evenodd" d="M49.9181 40.4865C49.9181 37.4213 48.2937 35.4204 45.0448 34.5264C41.796 33.6324 38.8545 33.1641 36.1325 33.1641C33.2056 33.1641 30.586 33.5756 28.2738 34.3987C25.9908 35.2076 24.3225 36.7827 23.2688 39.0816H2.28298C3.10251 32.781 6.0294 27.5872 11.0636 23.5002C16.7125 18.8457 24.7469 16.5184 35.1666 16.5184C46.8888 16.5184 55.6694 18.3916 61.5086 22.2656C65.5038 24.9051 68.3575 28.9069 69.7185 32.9512C61.0257 34.6967 56.8548 39.3796 49.8303 41.338C50.0498 40.7845 49.9181 41.0825 49.9181 40.4865ZM56.2841 41.7637C60.9818 39.4222 64.977 37.6342 68.138 36.3144C71.5625 34.867 75.0747 33.5898 78.8504 32.7384C84.47 31.4186 89.7384 31.0781 95.6215 31.0781V45.212C90.7921 45.212 86.5335 45.51 82.1871 46.4892C78.148 47.4258 74.3723 48.7881 70.5966 50.3633V66.9664C70.5966 75.0551 69.1039 81.3983 66.0745 85.9536C63.0306 90.4946 59.4159 93.7868 55.2304 95.8303C50.8401 98.0441 46.1863 99.4206 41.2691 99.9598C36.352 100.428 32.0056 100.684 28.2299 100.684C20.7224 100.684 14.1369 98.7252 8.47335 94.766C2.82445 90.821 0 84.2791 0 75.1403C0 66.6258 2.5903 60.538 7.72699 56.8768C19.5809 48.3624 42.3667 48.1069 56.2841 41.7637ZM33.4104 63.4329C31.6543 63.8019 30.7762 63.9863 30.7762 63.9863C27.0006 65.0081 24.2639 66.3278 22.5663 67.9455C21.1175 70.1593 20.3712 72.3731 20.3712 74.6294C20.3712 77.652 21.337 80.0786 23.2249 81.9092C25.1127 83.527 27.8347 84.3358 31.3909 84.3358C37.23 84.3358 41.8838 82.7181 45.2204 79.4826C48.5571 76.2471 50.2254 71.7771 50.2254 66.115V59.1331C45.2204 60.9211 39.7325 62.4963 33.4104 63.4329ZM115.993 72.3731H137.33C137.505 76.4174 139.086 79.44 142.027 81.4835C145.159 83.4986 149.33 84.5061 154.54 84.5061C158.315 84.5061 161.564 83.825 164.242 82.3775C166.76 80.9585 168.018 79.0427 168.018 76.6303C168.018 69.3504 152.037 68.4564 146.374 66.5832C135.266 63.9438 127.847 60.836 124.071 57.1748C119.9 53.5562 117.793 48.7029 117.793 42.6151C117.793 34.9237 120.822 28.5379 126.881 23.4577C119.768 29.4178 119.198 36.1867 122.051 40.6142C126.31 47.298 140.008 46.6169 147.384 46.9575C158.184 50.9167 177.018 52.9176 184.043 58.7074C188.038 62.3686 190.014 67.2218 190.014 73.3097C190.014 82.2214 186.662 89.1181 179.96 93.9997C173.682 98.4698 164.286 100.684 151.73 100.684C139.818 100.684 130.934 98.3563 125.081 93.7017C117.968 88.2099 115.993 80.8449 115.993 72.3731Z" fill="#0973B9"/>
<path d="M106.29 99.0232H92.1093C87.9824 99.0232 84.6018 95.7452 84.6018 91.7434V16.5184H98.7826C102.909 16.5184 106.29 19.7539 106.29 23.7557V31.0781H115.993V36.5699C115.993 41.3379 111.954 45.212 107.036 45.212H106.29V99.0232Z" fill="#0973B9"/>
<path d="M161.187 27.5307C160.781 29.6938 160.681 31.9249 160.781 33.0368C161.187 37.5597 162.11 44.6995 174.401 48.7686C174.401 48.7686 177.944 51.6729 183.37 54.2142C183.37 54.2142 162.94 48.6879 162.442 48.4056L147.493 44.2104C131.05 44.2104 123.834 40.0574 123.834 33.6805C123.834 28.7156 127.053 24.4828 131.572 22.8512C131.555 22.6137 131.545 22.3729 131.545 22.1321C131.545 16.2091 136.478 11.4085 142.564 11.4085C144.513 11.4085 146.344 11.903 147.933 12.7685C149.637 5.4578 156.355 0 164.382 0C173.698 0 181.487 6.0759 181.487 15.1419C174.382 13.1754 168.698 16.5184 166.059 18.8782C163.623 22.0245 163.014 21.8279 161.187 27.5307Z" fill="#00AB64"/>
<path d="M188.921 20.6815C191.845 23.3998 193.668 27.2258 193.668 31.4636C193.668 39.7183 186.759 46.4088 178.239 46.4088C169.718 46.4088 162.811 39.7183 162.811 31.4636C162.811 30.8774 162.845 30.3012 162.914 29.7333C163.798 22.2956 170.323 16.5184 178.239 16.5184C182.384 16.5184 186.149 18.1009 188.921 20.6815Z" fill="#FF0000"/>
<path d="M182.104 38.9206L180.285 37.1592L186.164 31.4644L180.285 25.7695L182.104 24.0083L189.801 31.4644L182.104 38.9206Z" fill="white"/>
<path d="M174.296 38.9206L166.599 31.4644L174.296 24.0082L176.115 25.7694L170.235 31.4644L176.115 37.1592L174.296 38.9206Z" fill="white"/>
</svg>
