<svg width="195" height="80" viewBox="0 0 195 80" fill="none" xmlns="http://www.w3.org/2000/svg">
<path fill-rule="evenodd" clip-rule="evenodd" d="M45.8364 22.5283C45.8364 19.6473 44.3448 17.7666 41.3616 16.9262C38.3785 16.0859 35.6775 15.6458 33.178 15.6458C30.4904 15.6458 28.0851 16.0326 25.9619 16.8062C23.8656 17.5665 22.3337 19.047 21.3662 21.2078H2.09631C2.84883 15.2856 5.53639 10.4039 10.159 6.56243C15.346 2.18748 22.7234 0 32.2911 0C43.0548 0 51.1175 1.76065 56.4792 5.402C60.1477 7.88291 62.7681 11.6443 64.0178 15.4457C56.0358 17.0863 52.206 21.4879 45.7558 23.3286C45.9574 22.8084 45.8364 23.0885 45.8364 22.5283ZM51.6819 23.7288C55.9954 21.5279 59.664 19.8473 62.5665 18.6069C65.711 17.2464 68.9361 16.0459 72.403 15.2456C77.5632 14.0052 82.4008 13.6851 87.8028 13.6851V26.97C83.3683 26.97 79.4579 27.2501 75.4669 28.1704C71.758 29.0507 68.2911 30.3312 64.8241 31.8118V47.4175C64.8241 55.0203 63.4534 60.9825 60.6718 65.2641C57.8767 69.5323 54.5576 72.6268 50.7144 74.5475C46.683 76.6283 42.4098 77.9221 37.8947 78.429C33.3796 78.8691 29.3885 79.1092 25.9216 79.1092C19.028 79.1092 12.9809 77.2685 7.78051 73.5472C2.5935 69.8391 0 63.6902 0 55.1004C0 47.0974 2.3785 41.3753 7.09518 37.934C17.9798 29.9311 38.9025 29.691 51.6819 23.7288ZM30.6786 44.0963C29.066 44.4431 28.2598 44.6165 28.2598 44.6165C24.7928 45.5768 22.2799 46.8173 20.7211 48.3379C19.3908 50.4186 18.7055 52.4994 18.7055 54.6202C18.7055 57.4612 19.5924 59.7421 21.3258 61.4627C23.0593 62.9833 25.5588 63.7435 28.8242 63.7435C34.1858 63.7435 38.4591 62.223 41.5229 59.1819C44.5867 56.1408 46.1186 51.9392 46.1186 46.6172V40.0548C41.5229 41.7354 36.4837 43.216 30.6786 44.0963Z" fill="#0973B9"/>
<path d="M97.5989 77.5486H84.5777C80.7882 77.5486 77.6841 74.4675 77.6841 70.7061V0H90.7053C94.4948 0 97.5989 3.04112 97.5989 6.80251V13.6851H106.508V18.847C106.508 23.3286 102.799 26.97 98.2843 26.97H97.5989V77.5486Z" fill="#0973B9"/>
<path d="M119.774 36.2864H115.359V13.3492H119.774L119.774 7.75441H115.359C112.252 7.75462 109.723 10.2644 109.723 13.349V36.286C109.723 39.3706 112.251 41.8795 115.359 41.8795H119.774L119.774 36.2864Z" fill="#00AB64"/>
<path fill-rule="evenodd" clip-rule="evenodd" d="M184.096 2.87716C184.096 1.34279 182.842 0.09758 181.295 0.09758H122.306C120.76 0.09758 119.506 1.343 119.506 2.87716V17.3301C119.506 18.8653 120.76 20.1095 122.306 20.1095H181.295C182.842 20.1095 184.096 18.8653 184.096 17.3301V2.87716ZM128.187 10.1042C128.187 12.5083 130.15 14.4584 132.574 14.4584C134.996 14.4584 136.96 12.5083 136.96 10.1042C136.96 7.69894 134.996 5.74971 132.574 5.74971C130.151 5.74971 128.187 7.69894 128.187 10.1042ZM153.9 14.9673C155.061 14.9673 156.001 14.0339 156.001 12.8833V7.325C156.001 6.17317 155.06 5.24 153.9 5.24C152.74 5.24 151.8 6.17338 151.8 7.325V12.8833C151.8 14.0341 152.741 14.9673 153.9 14.9673ZM163.235 14.9673C164.395 14.9673 165.334 14.0339 165.334 12.8833V7.325C165.334 6.17317 164.395 5.24 163.235 5.24C162.075 5.24 161.135 6.17338 161.135 7.325V12.8833C161.135 14.0341 162.075 14.9673 163.235 14.9673ZM172.568 14.9673C173.728 14.9673 174.668 14.0339 174.668 12.8833V7.325C174.668 6.17317 173.728 5.24 172.568 5.24C171.408 5.24 170.468 6.17338 170.468 7.325V12.8833C170.468 14.0341 171.408 14.9673 172.568 14.9673Z" fill="#00AB64"/>
<path d="M183.988 45.0931H188.402V68.0303H183.988L183.988 73.6251H188.402C191.51 73.6249 194.039 71.1151 194.039 68.0305V45.0936C194.039 42.0089 191.51 39.5 188.402 39.5H183.988L183.988 45.0931Z" fill="#00AB64"/>
<path fill-rule="evenodd" clip-rule="evenodd" d="M184.096 32.0565C184.096 30.5221 182.842 29.2769 181.295 29.2769H122.306C120.76 29.2769 119.506 30.5223 119.506 32.0565V46.5094C119.506 48.0446 120.76 49.2888 122.306 49.2888H181.295C182.842 49.2888 184.096 48.0446 184.096 46.5094V32.0565ZM128.187 39.2835C128.187 41.6876 130.15 43.6377 132.574 43.6377C134.996 43.6377 136.96 41.6876 136.96 39.2835C136.96 36.8782 134.996 34.929 132.574 34.929C130.151 34.929 128.187 36.8782 128.187 39.2835ZM153.9 44.1466C155.061 44.1466 156.001 43.2132 156.001 42.0626V36.5043C156.001 35.3525 155.06 34.4193 153.9 34.4193C152.74 34.4193 151.8 35.3527 151.8 36.5043V42.0626C151.8 43.2134 152.741 44.1466 153.9 44.1466ZM163.235 44.1466C164.395 44.1466 165.334 43.2132 165.334 42.0626V36.5043C165.334 35.3525 164.395 34.4193 163.235 34.4193C162.075 34.4193 161.135 35.3527 161.135 36.5043V42.0626C161.135 43.2134 162.075 44.1466 163.235 44.1466ZM172.568 44.1466C173.728 44.1466 174.668 43.2132 174.668 42.0626V36.5043C174.668 35.3525 173.728 34.4193 172.568 34.4193C171.408 34.4193 170.468 35.3527 170.468 36.5043V42.0626C170.468 43.2134 171.408 44.1466 172.568 44.1466Z" fill="#00AB64"/>
<path fill-rule="evenodd" clip-rule="evenodd" d="M184.096 61.1117C184.096 59.5774 182.842 58.3322 181.295 58.3322H122.306C120.76 58.3322 119.506 59.5776 119.506 61.1117V75.5647C119.506 77.0999 120.76 78.3441 122.306 78.3441H181.295C182.842 78.3441 184.096 77.0999 184.096 75.5647V61.1117ZM128.187 68.3388C128.187 70.7429 130.15 72.693 132.574 72.693C134.996 72.693 136.96 70.7429 136.96 68.3388C136.96 65.9335 134.996 63.9843 132.574 63.9843C130.151 63.9843 128.187 65.9335 128.187 68.3388ZM153.9 73.2019C155.061 73.2019 156.001 72.2685 156.001 71.1179V65.5596C156.001 64.4078 155.06 63.4746 153.9 63.4746C152.74 63.4746 151.8 64.408 151.8 65.5596V71.1179C151.8 72.2687 152.741 73.2019 153.9 73.2019ZM163.235 73.2019C164.395 73.2019 165.334 72.2685 165.334 71.1179V65.5596C165.334 64.4078 164.395 63.4746 163.235 63.4746C162.075 63.4746 161.135 64.408 161.135 65.5596V71.1179C161.135 72.2687 162.075 73.2019 163.235 73.2019ZM172.568 73.2019C173.728 73.2019 174.668 72.2685 174.668 71.1179V65.5596C174.668 64.4078 173.728 63.4746 172.568 63.4746C171.408 63.4746 170.468 64.408 170.468 65.5596V71.1179C170.468 72.2687 171.408 73.2019 172.568 73.2019Z" fill="#00AB64"/>
</svg>
