<svg width="67" height="30" viewBox="0 0 67 30" fill="none" xmlns="http://www.w3.org/2000/svg">
<path fill-rule="evenodd" clip-rule="evenodd" d="M17.5639 8.54325C17.5639 7.45068 16.9923 6.73748 15.8492 6.41881C14.7061 6.10015 13.6711 5.93323 12.7134 5.93323C11.6835 5.93323 10.7618 6.07992 9.94824 6.37329C9.14497 6.66161 8.55796 7.22306 8.18722 8.04249H0.803276C1.09163 5.79666 2.12147 3.94538 3.89279 2.48862C5.88038 0.829543 8.70729 0 12.3735 0C16.498 0 19.5875 0.667678 21.6421 2.04856C23.0478 2.98938 24.0519 4.41578 24.5308 5.85736C21.4721 6.47951 20.0046 8.14871 17.533 8.84674C17.6102 8.64947 17.5639 8.75569 17.5639 8.54325ZM19.8038 8.99848C21.4567 8.16388 22.8624 7.52656 23.9746 7.05615C25.1796 6.54021 26.4154 6.08497 27.7439 5.78148C29.7211 5.31107 31.5749 5.18968 33.6448 5.18968V10.2276C31.9456 10.2276 30.4472 10.3338 28.9179 10.6829C27.4967 11.0167 26.1682 11.5023 24.8397 12.0637V17.9818C24.8397 20.8649 24.3145 23.1259 23.2486 24.7496C22.1776 26.3682 20.9057 27.5417 19.4331 28.2701C17.8883 29.0592 16.2509 29.5498 14.5207 29.742C12.7906 29.909 11.2613 30 9.9328 30C7.29126 30 4.97412 29.302 2.98138 27.8907C0.993795 26.4846 0 24.1528 0 20.8953C0 17.8604 0.911408 15.6904 2.71878 14.3854C6.88962 11.3505 14.9069 11.2595 19.8038 8.99848ZM11.7556 16.7223C11.1377 16.8538 10.8288 16.9196 10.8288 16.9196C9.50026 17.2838 8.53736 17.7542 7.94006 18.3308C7.43029 19.1199 7.16768 19.909 7.16768 20.7132C7.16768 21.7906 7.50752 22.6555 8.17177 23.308C8.83602 23.8847 9.79377 24.173 11.045 24.173C13.0996 24.173 14.737 23.5964 15.911 22.4431C17.085 21.2898 17.672 19.6965 17.672 17.6783V15.1897C15.911 15.827 13.9801 16.3885 11.7556 16.7223ZM40.8125 19.909H48.32C48.3818 21.3505 48.9379 22.4279 49.9729 23.1563C51.0749 23.8746 52.5424 24.2337 54.3755 24.2337C55.704 24.2337 56.8471 23.9909 57.7894 23.475C58.6751 22.9691 59.1179 22.2863 59.1179 21.4264C59.1179 18.8316 53.495 18.5129 51.5022 17.8452C47.594 16.9044 44.9834 15.7967 43.6549 14.4917C42.1873 13.2018 41.4459 11.4719 41.4459 9.30197C41.4459 6.56044 42.5117 4.28427 44.6435 2.47344C42.141 4.59787 41.9402 7.01062 42.9443 8.58877C44.4427 10.9712 49.2623 10.7284 51.8575 10.8498C55.6576 12.261 62.2846 12.9742 64.7563 15.0379C66.162 16.3429 66.8571 18.0728 66.8571 20.2428C66.8571 23.4193 65.678 25.8776 63.3196 27.6176C61.1106 29.2109 57.8049 30 53.3868 30C49.1954 30 46.0698 29.1705 44.0102 27.5114C41.5077 25.5539 40.8125 22.9287 40.8125 19.909Z" fill="#0973B9"/>
<path d="M51.8884 10.8498C51.8884 10.8498 49.1696 9.96965 49.1696 8.10319C49.1696 6.28225 51.5949 5.81183 53.3714 5.81183C54.9161 5.81183 56.1313 6.14061 57.017 6.79818C58.2683 8.07283 59.0252 9.52959 61.0952 9.52959H65.8376C65.6934 6.63631 64.5554 4.28933 62.4237 2.48862C60.1477 0.829543 57.0942 0 53.2632 0C49.7309 0 46.8576 0.82448 44.6435 2.47344C42.141 4.59787 41.9402 7.01062 42.9442 8.58877C44.4581 10.9863 49.2932 10.7284 51.8884 10.8498Z" fill="#00AB64"/>
<path d="M37.3986 29.4082H32.409C30.957 29.4082 29.7675 28.2398 29.7675 26.8134V0H34.7571C36.2091 0 37.3986 1.15326 37.3986 2.57967V5.18968H40.8125V7.14719C40.8125 8.84673 39.3913 10.2276 37.6612 10.2276H37.3986V29.4082Z" fill="#0973B9"/>
</svg>
