<svg width="18" height="18" viewBox="0 0 18 18" fill="none" xmlns="http://www.w3.org/2000/svg">
<path d="M7.00747 8.76779C7.38642 8.76779 7.68591 8.46219 7.6798 8.07102C7.6798 7.69207 7.38642 7.39869 7.00747 7.39869C6.62242 7.39869 6.32292 7.69818 6.32292 8.08324C6.32292 8.4683 6.62853 8.7739 7.00747 8.76779ZM10.0329 8.76779C10.2652 8.76779 10.4913 8.76779 10.7236 8.76779C10.9497 8.76779 11.1698 8.76779 11.3959 8.76779C11.5854 8.76779 11.7015 8.67 11.7015 8.52942C11.6954 8.33995 11.5548 8.29716 11.4143 8.29105C10.9497 8.28494 10.4791 8.28494 10.0146 8.29105C9.83124 8.29105 9.72123 8.40718 9.73345 8.54165C9.7579 8.71278 9.87403 8.76779 10.0329 8.76779ZM9 1.80005C5.01495 1.80005 1.78778 5.0211 1.78778 9.00005C1.78778 12.9729 5.01495 16.2 9 16.2C12.9851 16.2 16.2122 12.979 16.2122 9.00005C16.2122 5.0211 12.9851 1.80005 9 1.80005ZM13.0095 10.9498C13.0095 11.5304 12.6306 11.9216 12.0621 11.9216C10.0207 11.9277 7.97318 11.9277 5.93175 11.9216C5.36333 11.9216 5.00272 11.5549 5.00272 10.9804C4.99661 9.66015 4.99661 8.33995 5.00272 7.01974C5.00272 6.37798 5.32055 6.06626 5.9562 6.06626C6.9708 6.06015 7.9854 6.06626 9 6.06626C9.96571 6.06626 10.9375 6.06626 11.9032 6.06626C12.0132 6.06626 12.1233 6.06626 12.2333 6.07849C12.7528 6.14572 13.0095 6.43299 13.0095 6.97085C13.0156 8.29716 13.0156 9.62348 13.0095 10.9498ZM7.5759 9.23842C7.19695 9.20786 6.81189 9.20786 6.43294 9.23842C6.17012 9.25675 5.96843 9.44012 5.92564 9.70294C5.87674 9.9902 5.88897 10.2836 5.87674 10.577H8.11987C8.11987 10.3141 8.13209 10.0758 8.11987 9.8374C8.09542 9.53791 7.86927 9.26287 7.5759 9.23842ZM11.4082 9.1773C10.693 9.17119 9.98405 9.17119 9.27505 9.1773C9.06724 9.1773 8.98167 9.2812 8.98778 9.45845C8.99389 9.61737 9.08557 9.69071 9.29338 9.69071C9.64177 9.69071 9.98405 9.69071 10.3324 9.69071C10.6869 9.69071 11.0353 9.69071 11.3898 9.69071C11.5915 9.69071 11.6893 9.61125 11.6954 9.45234C11.7076 9.2812 11.6221 9.18341 11.4082 9.1773ZM11.4143 10.1186C10.693 10.1124 9.97793 10.1186 9.26282 10.1186C9.19559 10.1186 9.10391 10.1491 9.07335 10.198C9.03056 10.2652 8.98167 10.3936 9.01834 10.4425C9.06724 10.522 9.17725 10.6014 9.26893 10.6075C9.62343 10.6259 9.98405 10.6136 10.3447 10.6136C10.6992 10.6136 11.0475 10.6136 11.402 10.6136C11.6037 10.6136 11.7076 10.5281 11.7076 10.3753C11.7015 10.2286 11.5976 10.1186 11.4143 10.1186Z" fill="black"/>
</svg>
