<svg width="42" height="37" viewBox="0 0 42 37" fill="none" xmlns="http://www.w3.org/2000/svg">
<path d="M27.6675 28.1834L12.648 28.1999H2.6655C2.35143 28.2012 2.04036 28.1387 1.75116 28.0162C1.46196 27.8937 1.20065 27.7138 0.983103 27.4872C0.76555 27.2607 0.596281 26.9923 0.485562 26.6984C0.374843 26.4045 0.324981 26.0912 0.339002 25.7774C0.387002 24.5174 1.4865 23.5634 2.739 23.5634H9.975L18.5535 8.9609L15.7755 4.2284C15.15 3.1499 15.4275 1.7279 16.5 1.0499C16.7644 0.878901 17.0607 0.763134 17.371 0.70956C17.6812 0.655987 17.9992 0.665713 18.3056 0.738154C18.612 0.810596 18.9007 0.944255 19.1541 1.1311C19.4076 1.31794 19.6207 1.55411 19.7805 1.8254L21.2655 4.3619H21.282L22.7685 1.8254C22.9285 1.55552 23.1413 1.32062 23.394 1.13471C23.6468 0.948805 23.9344 0.815699 24.2397 0.743328C24.545 0.670958 24.8617 0.660805 25.171 0.713476C25.4803 0.766148 25.7759 0.880563 26.04 1.0499C27.1065 1.7279 27.381 3.1499 26.751 4.2329L23.973 8.9654L21.273 13.5689L15.4095 23.5679V23.5844H24.051C25.134 23.5844 26.4915 24.1664 27.0405 25.1024L27.0885 25.1999C27.573 26.0234 27.8475 26.5889 27.8475 27.4124C27.8396 27.6798 27.78 27.9431 27.672 28.1879L27.6675 28.1834Z" fill="#3C3C3C"/>
<path d="M39.33 28.1999H35.2635V28.2164L38.2365 33.2729C38.5562 33.8055 38.6541 34.4422 38.5091 35.0462C38.364 35.6502 37.9877 36.1731 37.461 36.5024C37.0959 36.725 36.6766 36.8428 36.249 36.8429C35.8425 36.8427 35.4429 36.7374 35.0891 36.5371C34.7353 36.3368 34.4394 36.0484 34.23 35.6999L29.8365 28.2209L27.1065 23.5709L23.5845 17.5499C23.0744 16.6902 22.7971 15.7124 22.78 14.7128C22.7629 13.7133 23.0066 12.7266 23.487 11.8499C24.183 10.6214 24.7155 10.2989 24.7155 10.2989L32.55 23.5499H39.2865C40.5465 23.5499 41.628 24.5189 41.6865 25.7624C41.6986 26.0785 41.6467 26.3939 41.5339 26.6895C41.4211 26.9851 41.2497 27.2548 41.03 27.4825C40.8103 27.7101 40.5469 27.891 40.2555 28.0143C39.9642 28.1376 39.6509 28.2007 39.3345 28.1999H39.33Z" fill="#3C3C3C"/>
<path d="M8.25 35.6834C8.04381 36.0351 7.74867 36.3263 7.39426 36.5277C7.03985 36.7291 6.63865 36.8337 6.231 36.8309C5.81553 36.8345 5.40728 36.7223 5.052 36.5069C4.78748 36.3536 4.55583 36.1496 4.37036 35.9065C4.18488 35.6635 4.04923 35.3862 3.97118 35.0906C3.89314 34.795 3.87423 34.4869 3.91556 34.184C3.95688 33.8811 4.05763 33.5893 4.212 33.3254L6.5055 29.5124C6.6214 29.3156 6.78676 29.1525 6.98516 29.0394C7.18356 28.9262 7.4081 28.8669 7.6365 28.8674H7.9755C9.639 28.8674 10.803 29.8679 11.142 30.8369L8.25 35.6834Z" fill="#3C3C3C"/>
<path d="M27.6677 28.1834L12.6482 28.1999H2.66569C2.35161 28.2012 2.04054 28.1387 1.75134 28.0162C1.46214 27.8937 1.20084 27.7138 0.98329 27.4872C0.765738 27.2607 0.596468 26.9923 0.485748 26.6984C0.37503 26.4045 0.325168 26.0912 0.339189 25.7774C0.387188 24.5174 1.48669 23.5634 2.73919 23.5634H9.97519L18.5537 8.9609L15.7757 4.2284C15.1502 3.1499 15.4277 1.7279 16.5002 1.0499C16.7646 0.8789 17.0609 0.763133 17.3711 0.709558C17.6814 0.655985 17.9994 0.665711 18.3058 0.738153C18.6122 0.810594 18.9009 0.944252 19.1543 1.13109C19.4078 1.31794 19.6208 1.55411 19.7807 1.8254L21.2657 4.3619H21.2822L22.7687 1.8254C22.9287 1.55551 23.1414 1.32062 23.3942 1.13471C23.6469 0.948804 23.9346 0.815697 24.2398 0.743326C24.5452 0.670956 24.8619 0.660804 25.1712 0.713475C25.4805 0.766147 25.776 0.880562 26.0402 1.0499C27.1067 1.7279 27.3812 3.1499 26.7512 4.2329L23.9732 8.9654L21.2732 13.5689L15.4097 23.5679V23.5844H24.0512C25.1342 23.5844 26.4917 24.1664 27.0407 25.1024L27.0887 25.1999C27.5732 26.0234 27.8477 26.5889 27.8477 27.4124C27.8398 27.6798 27.7802 27.9431 27.6722 28.1879L27.6677 28.1834Z" fill="#3C3C3C"/>
<path d="M39.3302 28.1999H35.2637V28.2164L38.2367 33.2729C38.5564 33.8054 38.6543 34.4422 38.5093 35.0462C38.3642 35.6502 37.9879 36.1731 37.4612 36.5024C37.0961 36.725 36.6768 36.8428 36.2492 36.8429C35.8426 36.8427 35.4431 36.7374 35.0893 36.5371C34.7355 36.3368 34.4395 36.0484 34.2302 35.6999L29.8367 28.2209L27.1067 23.5709L23.5847 17.5499C23.0746 16.6902 22.7973 15.7124 22.7802 14.7128C22.7631 13.7133 23.0068 12.7266 23.4872 11.8499C24.1832 10.6214 24.7157 10.2989 24.7157 10.2989L32.5502 23.5499H39.2867C40.5467 23.5499 41.6282 24.5189 41.6867 25.7624C41.6988 26.0785 41.6469 26.3939 41.5341 26.6895C41.4213 26.9851 41.2499 27.2548 41.0302 27.4824C40.8105 27.7101 40.5471 27.891 40.2557 28.0143C39.9643 28.1376 39.6511 28.2007 39.3347 28.1999H39.3302Z" fill="#3C3C3C"/>
<path d="M8.25019 35.6834C8.044 36.0351 7.74886 36.3263 7.39445 36.5277C7.04003 36.7291 6.63883 36.8337 6.23119 36.8309C5.81572 36.8345 5.40746 36.7223 5.05219 36.5069C4.78766 36.3536 4.55602 36.1496 4.37054 35.9065C4.18507 35.6635 4.04941 35.3862 3.97137 35.0906C3.89332 34.795 3.87442 34.4869 3.91574 34.184C3.95707 33.8811 4.05781 33.5893 4.21219 33.3254L6.50569 29.5124C6.62159 29.3156 6.78694 29.1525 6.98534 29.0394C7.18375 28.9262 7.40829 28.8669 7.63669 28.8674H7.97569C9.63919 28.8674 10.8032 29.8679 11.1422 30.8369L8.25019 35.6834Z" fill="#3C3C3C"/>
</svg>
