<svg width="22" height="22" viewBox="0 0 22 22" fill="none" xmlns="http://www.w3.org/2000/svg">
<path d="M22 11C22 9.65451 21.758 8.36557 21.3158 7.17396L11 6.69568L0.684191 7.17392C0.242043 8.36557 0 9.65451 0 11C0 12.3456 0.242043 13.6345 0.684191 14.8261L11 15.3044L21.3158 14.8261C21.758 13.6345 22 12.3456 22 11Z" fill="#0052B4"/>
<path d="M10.9999 22C15.7295 22 19.7615 19.0149 21.3157 14.826H0.684082C2.2383 19.0149 6.27028 22 10.9999 22Z" fill="#FF9811"/>
<path d="M0.684082 7.17393H21.3157C19.7615 2.98513 15.7295 0 10.9999 0C6.27028 0 2.2383 2.98513 0.684082 7.17393Z" fill="#D80027"/>
</svg>
