<svg width="16" height="16" viewBox="0 0 16 16" fill="none" xmlns="http://www.w3.org/2000/svg">
<path d="M6.00747 7.76779C6.38642 7.76779 6.68591 7.46219 6.6798 7.07102C6.6798 6.69207 6.38642 6.39869 6.00747 6.39869C5.62242 6.39869 5.32292 6.69818 5.32292 7.08324C5.32292 7.4683 5.62853 7.7739 6.00747 7.76779ZM9.03294 7.76779C9.2652 7.76779 9.49135 7.76779 9.7236 7.76779C9.94975 7.76779 10.1698 7.76779 10.3959 7.76779C10.5854 7.76779 10.7015 7.67 10.7015 7.52942C10.6954 7.33995 10.5548 7.29716 10.4143 7.29105C9.94975 7.28494 9.47912 7.28494 9.01461 7.29105C8.83124 7.29105 8.72123 7.40718 8.73345 7.54165C8.7579 7.71278 8.87403 7.76779 9.03294 7.76779ZM8 0.800049C4.01495 0.800049 0.787781 4.0211 0.787781 8.00005C0.787781 11.9729 4.01495 15.2 8 15.2C11.9851 15.2 15.2122 11.979 15.2122 8.00005C15.2122 4.0211 11.9851 0.800049 8 0.800049ZM12.0095 9.94979C12.0095 10.5304 11.6306 10.9216 11.0621 10.9216C9.02072 10.9277 6.97318 10.9277 4.93175 10.9216C4.36333 10.9216 4.00272 10.5549 4.00272 9.98035C3.99661 8.66015 3.99661 7.33995 4.00272 6.01974C4.00272 5.37798 4.32055 5.06626 4.9562 5.06626C5.9708 5.06015 6.9854 5.06626 8 5.06626C8.96571 5.06626 9.93753 5.06626 10.9032 5.06626C11.0132 5.06626 11.1233 5.06626 11.2333 5.07849C11.7528 5.14572 12.0095 5.43299 12.0095 5.97085C12.0156 7.29716 12.0156 8.62348 12.0095 9.94979ZM6.5759 8.23842C6.19695 8.20786 5.81189 8.20786 5.43294 8.23842C5.17012 8.25675 4.96843 8.44012 4.92564 8.70294C4.87674 8.9902 4.88897 9.28358 4.87674 9.57696H7.11987C7.11987 9.31414 7.13209 9.07577 7.11987 8.8374C7.09542 8.53791 6.86927 8.26287 6.5759 8.23842ZM10.4082 8.1773C9.69304 8.17119 8.98405 8.17119 8.27505 8.1773C8.06724 8.1773 7.98167 8.2812 7.98778 8.45845C7.99389 8.61737 8.08557 8.69071 8.29338 8.69071C8.64177 8.69071 8.98405 8.69071 9.33243 8.69071C9.68693 8.69071 10.0353 8.69071 10.3898 8.69071C10.5915 8.69071 10.6893 8.61125 10.6954 8.45234C10.7076 8.2812 10.6221 8.18341 10.4082 8.1773ZM10.4143 9.11856C9.69304 9.11244 8.97793 9.11856 8.26282 9.11856C8.19559 9.11856 8.10391 9.14912 8.07335 9.19801C8.03056 9.26524 7.98167 9.3936 8.01834 9.44249C8.06724 9.52195 8.17725 9.60141 8.26893 9.60752C8.62343 9.62586 8.98405 9.61363 9.34466 9.61363C9.69916 9.61363 10.0475 9.61363 10.402 9.61363C10.6037 9.61363 10.7076 9.52806 10.7076 9.37526C10.7015 9.22857 10.5976 9.11856 10.4143 9.11856Z" fill="black"/>
</svg>
