<svg width="16" height="16" viewBox="0 0 16 16" fill="none" xmlns="http://www.w3.org/2000/svg">
<path d="M5.14612 0.831657C5.14002 0.843859 5.09121 1.0757 5.0424 1.33195L4.96308 1.80784L4.65193 1.89325C4.4811 1.93596 4.33467 1.97257 4.33467 1.96647C4.26756 1.85664 3.70625 1.22213 3.68185 1.22213C3.62084 1.22213 2.846 1.67971 2.82769 1.72852C2.81549 1.77123 2.8521 1.91156 3.02903 2.41185L3.12665 2.6803L2.90701 2.89384C2.78498 3.01586 2.68126 3.11348 2.66906 3.11348C2.66296 3.11348 2.46773 3.04636 2.23588 2.96095C2.00404 2.87553 1.7905 2.80842 1.75389 2.81452C1.71119 2.82062 1.62577 2.94264 1.46104 3.2294C1.33292 3.44904 1.2292 3.65037 1.2292 3.66868C1.2292 3.69308 1.86371 4.25439 1.97353 4.3215C1.97353 4.3276 1.94303 4.46792 1.90032 4.63876L1.81491 4.94991L1.33902 5.02923C1.08277 5.07804 0.850928 5.12075 0.838726 5.13295C0.783816 5.17565 0.796018 6.13353 0.844827 6.17014C0.863131 6.18844 1.08887 6.23725 1.34512 6.27996C1.60137 6.32267 1.8088 6.36537 1.81491 6.36537C1.81491 6.37147 1.84541 6.4813 1.88202 6.60942C1.91252 6.74364 1.94913 6.87787 1.96133 6.90837C1.97353 6.95718 1.90642 7.0304 1.60137 7.28054C1.39393 7.45747 1.2231 7.6161 1.2231 7.63441C1.2231 7.69542 1.70509 8.51297 1.74779 8.51297C1.7661 8.51297 1.97964 8.43975 2.22978 8.34824L2.68126 8.18351L2.90091 8.40315L3.12665 8.62889L2.96802 9.05597C2.8826 9.29391 2.80939 9.51355 2.80939 9.54406C2.80939 9.59287 2.90701 9.65998 3.21206 9.83691C3.4317 9.96504 3.63914 10.0688 3.66965 10.0688C3.70625 10.0688 3.84658 9.92843 4.03571 9.69659L4.34077 9.32442L4.58481 9.39153C4.71904 9.42814 4.85326 9.46474 4.88377 9.46474C4.95088 9.46474 4.95088 9.47085 5.0363 9.95893C5.13392 10.5446 5.0668 10.4836 5.64641 10.4836C6.00638 10.4836 6.1467 10.4775 6.17111 10.447C6.18331 10.4287 6.23212 10.2091 6.28093 9.96504C6.32364 9.71489 6.36634 9.50745 6.37854 9.49525C6.39685 9.48305 6.6714 9.40373 6.92765 9.33662C6.95205 9.33052 7.11068 9.48915 7.28151 9.69659C7.45234 9.89792 7.61707 10.0688 7.64758 10.0688C7.70859 10.0688 8.49563 9.62337 8.51394 9.57456C8.52004 9.55626 8.45293 9.33052 8.36141 9.08037L8.19058 8.62889L8.41632 8.40315L8.64206 8.17741L9.09964 8.34214C9.34979 8.43365 9.56943 8.50077 9.59384 8.49467C9.63654 8.47636 10.088 7.69542 10.088 7.62831C10.088 7.6039 9.9172 7.43917 9.71586 7.26834C9.46571 7.0609 9.34369 6.94498 9.35589 6.91447C9.36199 6.89007 9.3986 6.76195 9.43521 6.62772C9.47181 6.4935 9.50842 6.37758 9.52062 6.36537C9.52672 6.35317 9.74026 6.31046 9.99041 6.26776C10.2345 6.22505 10.4541 6.17624 10.4785 6.15794C10.5029 6.13353 10.5151 5.99321 10.5151 5.63324C10.5151 5.05363 10.5761 5.12074 9.99041 5.02313C9.50842 4.94381 9.49622 4.93771 9.49622 4.8706C9.49622 4.84619 9.46571 4.70587 9.423 4.57164L9.34979 4.3276L9.72196 4.01644C9.9355 3.83951 10.0941 3.68698 10.0941 3.65648C10.0941 3.63207 9.99041 3.42463 9.86228 3.19889C9.68535 2.88773 9.61824 2.79622 9.56943 2.79622C9.53282 2.79622 9.31318 2.86333 9.07524 2.95485L8.64816 3.11348L8.42242 2.88773L8.20278 2.66809L8.36751 2.21661C8.45903 1.96647 8.52614 1.74682 8.52004 1.72242C8.50174 1.67361 7.72079 1.20993 7.65368 1.20993C7.63538 1.20993 7.47065 1.38076 7.29981 1.5882C7.04967 1.89325 6.97645 1.96647 6.92765 1.94816C6.89714 1.94206 6.75681 1.90545 6.62869 1.86885C6.49447 1.83224 6.38465 1.80173 6.38465 1.80173C6.38465 1.79563 6.34194 1.5882 6.29923 1.33195C6.25652 1.0757 6.18941 0.862162 6.17111 0.837758C6.1345 0.79505 5.17662 0.782848 5.14612 0.831657ZM6.28703 4.79739L7.25101 5.76136L7.53776 5.47461C7.69639 5.31598 7.84281 5.18786 7.86722 5.18786C7.98314 5.18786 7.98924 5.21836 7.98924 6.57281C7.98924 7.72592 7.98314 7.89065 7.94043 7.93336C7.89772 7.97607 7.73299 7.98217 6.57988 7.98217C5.22543 7.98217 5.19493 7.97607 5.19493 7.86015C5.19493 7.83574 5.32305 7.68322 5.48168 7.53069L5.76843 7.24394L4.79835 6.28606C4.26756 5.75526 3.83438 5.30378 3.83438 5.27937C3.83438 5.21836 5.21323 3.83951 5.27424 3.83951C5.30475 3.83951 5.75623 4.27269 6.28703 4.79739Z" fill="black"/>
<path d="M10.5575 7.97604C10.3928 8.01874 10.2525 8.07365 10.2342 8.09196C10.2098 8.11636 10.2098 8.21398 10.2342 8.43362C10.2525 8.60445 10.2647 8.76308 10.2647 8.79359C10.2647 8.8424 9.9352 9.06814 9.85589 9.07424C9.83758 9.07424 9.69115 8.98272 9.53863 8.879C9.38 8.76918 9.23357 8.67767 9.20917 8.67767C9.16036 8.67767 8.67227 9.15965 8.67227 9.21456C8.67227 9.23287 8.76379 9.3854 8.87361 9.54402C8.98343 9.70265 9.06884 9.84298 9.06884 9.86128C9.06884 9.9406 8.8431 10.2701 8.78819 10.2701C8.75768 10.2701 8.59295 10.2579 8.42212 10.2396C8.17808 10.2151 8.10486 10.2212 8.08046 10.2457C8.04385 10.2823 7.88522 10.8436 7.88522 10.9412C7.88522 10.9778 7.98894 11.0388 8.23299 11.1547L8.58075 11.3195V11.5574V11.7892L8.23299 11.954C7.95234 12.0821 7.88522 12.1248 7.88522 12.1736C7.88522 12.2468 8.04995 12.8447 8.07436 12.8752C8.08656 12.8813 8.26349 12.8752 8.46483 12.863C8.73938 12.8447 8.8431 12.8447 8.8553 12.8691C8.8675 12.8874 8.92241 12.979 8.98343 13.0766L9.08714 13.2535L8.87971 13.5525C8.76378 13.7172 8.67227 13.8697 8.67227 13.888C8.67227 13.9429 9.16036 14.4188 9.22137 14.4188C9.25187 14.4188 9.3983 14.3334 9.55083 14.2236C9.70336 14.1138 9.83758 14.0283 9.84978 14.0283C9.86199 14.0283 9.9596 14.0772 10.0694 14.1382L10.2647 14.248L10.2403 14.5408C10.2281 14.6995 10.222 14.8764 10.2159 14.9313V15.035L10.5758 15.1327C10.8199 15.1998 10.948 15.2181 10.9724 15.1998C10.9907 15.1876 11.07 15.0289 11.1554 14.852L11.3019 14.5347L11.552 14.5408L11.8021 14.5469L11.9425 14.8581C12.0218 15.0289 12.1011 15.1815 12.1194 15.1937C12.1377 15.212 12.278 15.1937 12.5099 15.1266L12.8698 15.0289V14.8459C12.8698 14.7483 12.8637 14.5713 12.8515 14.4554L12.8332 14.248L13.0163 14.1443C13.12 14.0894 13.2176 14.0345 13.2359 14.0283C13.2542 14.0222 13.3884 14.0955 13.5227 14.1992C13.9192 14.4798 13.8521 14.4798 14.1694 14.1626L14.4439 13.888L14.3341 13.7233C14.2731 13.6318 14.1755 13.4976 14.1206 13.4182C14.0657 13.3389 14.023 13.2596 14.0291 13.2352C14.0352 13.2169 14.084 13.1132 14.145 13.0095L14.2487 12.8264L14.4561 12.8447C14.5721 12.8569 14.749 12.863 14.8466 12.863H15.0296L15.1273 12.5031C15.1944 12.2712 15.2188 12.137 15.1944 12.1126C15.1822 12.1004 15.0235 12.0211 14.8588 11.9357L14.5476 11.7953L14.5415 11.5452L14.5354 11.295L14.8527 11.1486C15.0296 11.0693 15.1822 10.9839 15.2005 10.9656C15.2188 10.9412 15.2005 10.8131 15.1334 10.569L15.0357 10.209H14.932C14.8771 10.209 14.7002 10.2212 14.5415 10.2335L14.2487 10.2579L14.1389 10.0626C14.0779 9.9528 14.0291 9.85518 14.0291 9.84298C14.0291 9.83078 14.1145 9.69045 14.2243 9.54402C14.3341 9.3915 14.4195 9.24507 14.4195 9.21456C14.4195 9.15355 13.9436 8.66546 13.8826 8.66546C13.8643 8.66546 13.7057 8.75698 13.5471 8.8729L13.2542 9.08034L13.0773 8.97662C12.9797 8.92171 12.8881 8.8607 12.8698 8.8485C12.8454 8.83019 12.8454 8.73868 12.8698 8.45802C12.8881 8.25669 12.8942 8.07975 12.882 8.07365C12.8576 8.04925 12.2597 7.88452 12.1804 7.87842C12.1316 7.87842 12.0889 7.93943 11.9608 8.22618L11.796 8.57395H11.5642H11.3263L11.1615 8.22618C10.9602 7.83571 11.0029 7.85401 10.5575 7.97604ZM11.912 9.83078C11.9242 9.86128 11.8632 9.9467 11.7106 10.0931C11.5947 10.209 11.4971 10.3189 11.4971 10.3372C11.4971 10.3555 11.8204 10.691 12.217 11.0876C12.6136 11.4842 12.937 11.8197 12.937 11.838C12.937 11.8747 11.8815 12.9362 11.8387 12.9362C11.8204 12.9362 11.4849 12.6129 11.0883 12.2163C10.6917 11.8197 10.3562 11.4964 10.3379 11.4964C10.3257 11.4964 10.2098 11.594 10.0938 11.7099C9.9413 11.8563 9.86199 11.9174 9.83148 11.9113C9.78877 11.893 9.78267 11.7709 9.78267 10.8619C9.78267 10.2945 9.78877 9.81857 9.80098 9.81247C9.80708 9.80027 10.283 9.79417 10.8504 9.79417C11.7716 9.78807 11.8937 9.79417 11.912 9.83078Z" fill="black"/>
</svg>
