<svg width="16" height="12" viewBox="0 0 16 12" fill="none" xmlns="http://www.w3.org/2000/svg">
<path d="M0.186031 5.70677L1.08175 6.18765C1.08175 6.18765 1.48853 6.43013 1.70366 5.97574L3.92144 1.14651C3.92144 1.14651 4.13069 0.734918 3.78845 0.5393L2.8106 0.0421097C2.8106 0.0421097 2.50745 -0.135159 2.30993 0.237727C2.30406 0.388514 0.0354591 5.15864 0.0354591 5.15864C0.0354591 5.15864 -0.109277 5.54988 0.186031 5.70677ZM14.803 6.19784L15.7163 5.75975C15.7163 5.75975 16.1524 5.57636 15.9432 5.11789L13.6628 0.321268C13.6628 0.321268 13.481 -0.104597 13.1211 0.0563776L12.1452 0.549488C12.1452 0.549488 11.8245 0.690087 11.9809 1.07927C12.0904 1.17708 14.2965 5.98389 14.2965 5.98389C14.2965 5.98389 14.5018 6.34252 14.803 6.19784ZM2.35491 6.18154L2.65609 5.51522L3.71609 6.90898C3.71609 6.90898 4.40451 6.74393 4.64701 7.19221C4.64701 7.19221 4.87582 7.46526 4.77608 7.98078C4.77608 7.98078 4.91885 8.08878 4.92864 8.15602C4.92864 8.15602 5.40387 8.03784 5.6894 8.38627C5.6894 8.38627 5.95147 8.60634 5.92018 9.02813C5.92018 9.02813 6.10793 9.11167 6.14704 9.22783C6.14704 9.22783 6.61445 9.1076 6.83937 9.3888C6.83937 9.3888 7.11512 9.6598 7.09556 9.9736L7.52776 10.3017C7.52776 10.3017 7.93065 10.3363 7.99714 10.6664L8.38437 10.9639C8.38437 10.9639 9.00433 11.2186 9.03954 10.5747L7.58252 9.41936C7.58252 9.41936 7.41043 8.95479 7.94433 9.02609L10.1152 10.6175C10.1152 10.6175 10.4692 10.7744 10.6843 10.4239C10.6843 10.4239 10.8935 10.1203 10.5963 9.79429L8.28856 8.05618C8.28856 8.05618 8.08515 7.56917 8.60928 7.6079L11.3473 9.62719C11.3473 9.62719 11.7365 9.78817 11.9008 9.4866C11.9008 9.4866 12.1217 9.18504 11.9008 8.87327L8.87526 6.57685C8.87526 6.57685 8.69337 6.02668 9.26053 6.16728L12.3779 8.48204C12.3779 8.48204 12.8493 8.63691 13.0605 8.23549C13.0605 8.23549 13.3264 7.80554 12.9686 7.45099L8.55842 3.4409C8.55842 3.4409 7.73898 3.03133 7.25005 3.88716C7.25005 3.88716 7.16401 5.27886 5.68158 5.53153C5.68158 5.53153 4.66851 5.45003 4.90516 4.75926C4.90516 4.75926 5.20243 4.34969 5.177 3.48777C5.177 3.48777 5.21025 2.86833 5.6229 2.34058H4.03488L4.38495 1.58665H6.78266C6.78266 1.58665 7.76833 1.00387 8.5115 1.05889C8.5115 1.05889 9.47958 1.11391 9.73969 1.26674C9.73969 1.26674 11.0226 1.69464 11.5976 1.59479L13.745 6.23044L13.4047 7.03939C13.4047 7.03939 14.0325 7.71181 13.569 8.52891C13.4399 8.80195 13.1094 9.06685 12.5676 9.09129C12.5676 9.09129 12.6498 9.64146 12.2704 9.95118C12.2704 9.95118 11.9907 10.3506 11.314 10.2405C11.314 10.2405 11.3532 10.7255 10.9053 11.0495C10.9053 11.0495 10.3714 11.5263 9.54803 10.9435C9.54803 10.9435 9.417 11.4896 8.75988 11.6037C8.75988 11.6037 8.28072 11.6811 8.00107 11.4C8.00107 11.4 7.49844 12.3862 6.78266 11.8299C6.78266 11.8299 6.33087 11.4387 6.64771 10.8865C6.64771 10.8865 6.03752 11.891 5.31195 11.1351C5.31195 11.1351 4.91104 10.8192 5.28263 10.1611C5.28263 10.1611 4.70765 10.8416 4.07399 10.2242C4.07399 10.2242 3.64179 9.85746 3.98599 9.17281C3.98599 9.17281 3.39732 9.89616 2.71282 9.20541C2.71282 9.20541 2.42533 8.92829 2.59156 8.31496L3.25456 7.37153L2.35491 6.18154Z" fill="black"/>
</svg>
