<svg width="20" height="20" viewBox="0 0 20 20" fill="none" xmlns="http://www.w3.org/2000/svg">
<path d="M8.9809 2.06548C13.3639 1.50548 17.3724 4.59899 17.9345 8.982C18.4946 13.3645 15.4007 17.3725 11.0172 17.9345C6.63411 18.4945 2.62561 15.401 2.06604 11.018C1.50347 6.63549 4.59686 2.62748 8.9809 2.06548ZM7.3347 7.05749C7.48322 7.05749 7.62423 7.11749 7.72824 7.22399L10.6971 10.19L10.9026 9.9865L11.3302 9.557C8.40533 6.64049 7.87626 6.61149 7.3352 7.05699L7.3347 7.05749ZM10.5746 10.2965L7.61623 7.33599C7.45221 7.16399 7.17868 7.16649 7.01416 7.33849C6.85264 7.51299 6.86864 7.7865 7.05066 7.937L10.1835 10.687L10.5746 10.2965ZM10.3556 10.7605L11.0902 10.919C11.1057 10.9215 11.1262 10.9135 11.1342 10.8955C11.1422 10.8795 11.1397 10.8615 11.1262 10.848L10.6966 10.4185L10.3556 10.7605ZM12.2258 10.4535L11.4417 9.672L10.8556 10.258L12.1763 10.5415C12.1998 10.547 12.2228 10.537 12.2338 10.5155C12.2463 10.495 12.2413 10.469 12.2258 10.4535ZM14.6556 14.492C14.6841 14.4895 14.7056 14.4635 14.7031 14.4375C14.7006 14.425 14.6951 14.414 14.6871 14.406H14.6846L14.0545 13.776L13.2389 14.5915L14.6556 14.492ZM13.0389 13.6535C13.1009 13.6875 13.1324 13.758 13.1169 13.8255L12.9814 14.4015C12.9599 14.485 13.0619 14.5415 13.1219 14.4795H13.1244L13.942 13.6615L11.4337 11.156L10.2201 10.8935L9.63948 11.477C10.4756 12.211 11.6192 12.943 13.0384 13.6535H13.0389ZM9.51947 11.37L10.0795 10.81L6.94665 8.06C6.91815 8.034 6.89214 8.0055 6.86864 7.9765C6.96465 8.8725 8.22031 10.138 9.51947 11.37ZM7.07916 7.06249H7.08167C8.1733 5.96599 6.63111 4.28099 5.44346 5.27049L6.5161 6.34649C6.5476 6.37699 6.5476 6.42999 6.5161 6.46049L5.68549 7.29199C6.15155 7.52349 6.71162 7.42999 7.07916 7.06249ZM5.36295 7.06249C5.41746 7.11699 5.47747 7.16649 5.54247 7.20799L6.34707 6.40349L5.32645 5.37999C4.88389 5.86199 4.9019 6.60149 5.36295 7.06249ZM5.42846 6.03399C5.46196 6.05749 5.47497 6.09849 5.46446 6.13799C5.41496 6.23649 5.42846 6.35399 5.49847 6.43749C5.53247 6.47949 5.52447 6.53699 5.48297 6.56999C5.46696 6.58049 5.44896 6.58849 5.42846 6.58849C5.39996 6.58849 5.37295 6.57799 5.35795 6.55699C5.24044 6.41649 5.21743 6.21849 5.29795 6.05449C5.32945 6.01299 5.38646 6.00249 5.42846 6.03399Z" fill="#5A99FF"/>
</svg>
