<svg width="20" height="20" viewBox="0 0 20 20" fill="none" xmlns="http://www.w3.org/2000/svg">
<path fill-rule="evenodd" clip-rule="evenodd" d="M3.43178 15.5373C3.71966 15.8458 4.06572 16 4.46997 16H15.53C15.9342 16 16.2803 15.8458 16.5682 15.5373C16.856 15.2289 17 14.8581 17 14.425V5.575C17 5.14187 16.856 4.77109 16.5682 4.46266C16.2803 4.15422 15.9342 4 15.53 4H4.46997C4.06572 4 3.71966 4.15422 3.43178 4.46266C3.14391 4.77109 2.99997 5.14187 2.99997 5.575V6L4.46997 7.15L9.61497 10.5812C9.6733 10.625 9.73456 10.6578 9.79872 10.6797C9.86289 10.7016 9.92997 10.7125 9.99997 10.7125C10.07 10.7125 10.1371 10.7 10.2012 10.675C10.2654 10.65 10.3262 10.6191 10.3835 10.5824L15.53 7.15V14.425H2.99997C2.99997 14.8581 3.14391 15.2289 3.43178 15.5373ZM9.99997 9.2875L15.565 5.575H4.45247L9.99997 9.2875Z" fill="white"/>
<path d="M5.49963 8.5H1.49963V9.5H5.49963V8.5Z" fill="white"/>
<path d="M2.99997 10.5H5.49963V11.5H2.99997V10.5Z" fill="white"/>
<path d="M6.49963 12.5H3.49963V13.5H6.49963V12.5Z" fill="white"/>
</svg>
