<svg width="16" height="16" viewBox="0 0 16 16" fill="none" xmlns="http://www.w3.org/2000/svg">
<path d="M15.1233 6.41862H14.2752C14.1175 5.80401 13.8715 5.22837 13.5506 4.70181L14.1603 4.09068C14.3249 3.92607 14.4154 3.70646 14.4154 3.47329C14.4154 3.24046 14.3242 3.02051 14.1603 2.85624L13.1441 1.84105C12.8145 1.51112 12.2385 1.51147 11.9103 1.8407L11.2749 2.47237C10.7542 2.16889 10.196 1.93502 9.58102 1.78467V0.877022C9.58102 0.395704 9.19645 0 8.71513 0H7.27848C6.79717 0 6.41852 0.395704 6.41852 0.877022V1.78432C5.8039 1.93432 5.24219 2.16854 4.72085 2.47237L4.08571 1.8407C3.75647 1.51078 3.18015 1.51112 2.84987 1.84035L1.83433 2.85554C1.67146 3.01807 1.57854 3.24289 1.57854 3.47259C1.57854 3.70542 1.66867 3.92467 1.83364 4.08929L2.44338 4.70181C2.12285 5.22837 1.87645 5.80401 1.71914 6.41862H0.870654C0.388988 6.41862 0.000244141 6.80562 0.000244141 7.2859V8.7215C0.000244141 9.20317 0.388988 9.58147 0.870654 9.58147H1.71914C1.87645 10.1961 2.1225 10.7752 2.44268 11.3018L1.83294 11.9153C1.66798 12.0799 1.57749 12.3002 1.57749 12.5334C1.57749 12.7666 1.66833 12.9869 1.83294 13.1515L2.84917 14.1674C3.01414 14.332 3.23305 14.4225 3.46587 14.4225C3.6987 14.4225 3.91796 14.3317 4.08292 14.1674L4.72085 13.5354C5.24219 13.8392 5.8039 14.0731 6.41852 14.2238V15.13C6.41852 15.6113 6.79717 15.9994 7.27848 15.9994H8.71513C9.19645 15.9994 9.58102 15.6113 9.58102 15.13V14.2234C10.196 14.0731 10.7542 13.8392 11.2755 13.5354L11.9079 14.166C12.0729 14.3313 12.2921 14.4218 12.5257 14.4218C12.7588 14.4218 12.9784 14.331 13.143 14.1667L14.1593 13.1515C14.3239 12.9872 14.414 12.7676 14.4147 12.5348C14.4147 12.3016 14.3235 12.0827 14.1593 11.9178L13.5502 11.3018C13.8704 10.7748 14.1165 10.1954 14.2741 9.58147H15.1226C15.6039 9.58147 15.9996 9.20317 15.9996 8.7215V7.2859C16 6.80562 15.6046 6.41862 15.1233 6.41862ZM7.99646 10.7366C6.47281 10.7366 5.23732 9.51256 5.23732 8.00387C5.23732 6.49414 6.47281 5.27188 7.99646 5.27188C9.52046 5.27188 10.7566 6.49414 10.7566 8.00387C10.7563 9.51291 9.52046 10.7366 7.99646 10.7366Z" fill="black"/>
</svg>
