<svg width="20" height="20" viewBox="0 0 20 20" fill="none" xmlns="http://www.w3.org/2000/svg">
<path d="M10 2C14.4113 2 18 5.58867 18 10C18 14.4113 14.4113 18 10 18C5.58933 18 2 14.4113 2 10C2 5.58867 5.58933 2 10 2ZM10 2.76267C6.00333 2.76267 2.76267 6.00267 2.76267 10C2.76267 13.9967 6.00267 17.2373 10 17.2373C13.9973 17.2373 17.2373 13.9973 17.2373 10C17.2373 6.00267 13.9973 2.76267 10 2.76267ZM12.42 5.912C12.514 5.91015 12.6081 5.91126 12.702 5.91533C13.3573 5.95267 13.7507 6.26 13.8587 6.89667C13.9353 7.34 13.9227 7.79533 13.954 8.24133C13.9627 8.47467 13.9873 8.706 14.0307 8.93333C14.12 9.33933 14.2953 9.46533 14.708 9.48667C14.7626 9.49346 14.8169 9.5028 14.8707 9.51467V10.49C14.12 10.5267 14.0187 10.7913 13.9573 11.576C13.9353 11.862 13.966 12.148 13.9473 12.434C13.9353 12.7047 13.8987 12.9727 13.8433 13.234C13.6707 13.9507 12.972 14.1907 12.1267 14.046V13.1907C12.262 13.1907 12.382 13.194 12.4987 13.1907C12.7853 13.182 12.8927 13.1107 12.92 12.834C12.9573 12.4773 12.948 12.114 12.97 11.754C13.0127 11.0867 13.0867 10.4287 13.7387 10.004C13.4033 9.75733 13.16 9.46267 13.0833 9.072C13.028 8.79867 12.994 8.52467 12.9727 8.24733C12.954 7.97067 12.988 7.68733 12.9633 7.414C12.9233 6.97067 12.8953 6.78933 12.3633 6.80733C12.2833 6.80733 12.2067 6.796 12.1173 6.78933V5.916C12.224 5.916 12.324 5.91333 12.42 5.912ZM7.358 5.918C7.53953 5.91392 7.72103 5.92732 7.9 5.958V6.80733C7.73667 6.80733 7.61067 6.80733 7.48467 6.81067C7.266 6.81333 7.1 6.89733 7.078 7.14C7.05667 7.36133 7.05733 7.586 7.03533 7.81067C6.992 8.25667 6.968 8.70867 6.89067 9.14867C6.82267 9.51133 6.574 9.782 6.26333 10.004C6.808 10.37 6.968 10.8927 6.99533 11.4807C7.01067 11.8833 7.02 12.2893 7.04133 12.6953C7.06 13.0647 7.18933 13.1847 7.56133 13.194C7.666 13.1967 7.768 13.206 7.884 13.2127V14.0827C7.666 14.0827 7.466 14.0953 7.266 14.0827C6.64467 14.046 6.26933 13.7447 6.146 13.1413C6.094 12.8093 6.06333 12.4747 6.054 12.1387C6.03267 11.8313 6.03533 11.5207 6.00467 11.216C5.95867 10.7393 5.74 10.5427 5.26333 10.5113C5.21816 10.5058 5.17369 10.4955 5.13067 10.4807V9.50533C5.21067 9.496 5.26667 9.48733 5.32467 9.484C5.682 9.46867 5.86067 9.34867 5.94933 9.01067C6.00462 8.79383 6.03856 8.57211 6.05067 8.34867C6.07533 7.93667 6.07267 7.52133 6.1 7.10867C6.15333 6.314 6.62933 5.94 7.358 5.918ZM11.9513 9.438C12.0959 9.43784 12.2349 9.49331 12.3397 9.59291C12.4444 9.69251 12.5068 9.8286 12.5139 9.97297C12.5211 10.1173 12.4723 10.2589 12.3779 10.3683C12.2835 10.4777 12.1505 10.5466 12.0067 10.5607H11.97C11.8235 10.5692 11.6796 10.5193 11.57 10.4217C11.4603 10.3242 11.3939 10.1871 11.3853 10.0407V10.01C11.383 9.86082 11.44 9.71681 11.5437 9.60957C11.6474 9.50233 11.7895 9.44063 11.9387 9.438H11.9513ZM10.0107 9.438C10.1533 9.43332 10.292 9.48546 10.3963 9.58296C10.5005 9.68046 10.5618 9.81535 10.5667 9.958C10.5667 9.976 10.5667 9.99133 10.564 10.01C10.564 10.3453 10.336 10.5607 9.99133 10.5607C9.65333 10.5607 9.44067 10.3393 9.44067 9.992C9.444 9.65667 9.66867 9.43467 10.0107 9.438ZM8.03533 9.438C8.18633 9.4353 8.33231 9.49222 8.44163 9.59642C8.55095 9.70062 8.6148 9.84371 8.61933 9.99467C8.61933 10.308 8.36733 10.5607 8.05333 10.5607H8.04733C7.764 10.61 7.47867 10.336 7.46 10.0073C7.44467 9.70267 7.72133 9.438 8.03533 9.438Z" fill="#5A99FF"/>
</svg>
