<svg width="20" height="20" viewBox="0 0 20 20" fill="none" xmlns="http://www.w3.org/2000/svg">
<path d="M9.99988 20C15.5227 20 19.9998 15.5228 19.9998 9.99999C19.9998 4.47715 15.5227 0 9.99988 0C4.4771 0 0 4.47715 0 9.99999C0 15.5228 4.4771 20 9.99988 20Z" fill="#F0F0F0"/>
<path d="M9.56445 10.0001H19.9991C19.9991 9.09749 19.8788 8.22311 19.6546 7.39136H9.56445V10.0001Z" fill="#D80027"/>
<path d="M9.56445 4.78284H18.5314C17.9192 3.78394 17.1366 2.90101 16.224 2.17413H9.56445V4.78284Z" fill="#D80027"/>
<path d="M10.0002 20.0001C12.3536 20.0001 14.5167 19.1867 16.2249 17.8262H3.77539C5.48357 19.1867 7.64671 20.0001 10.0002 20.0001Z" fill="#D80027"/>
<path d="M1.46747 15.2172H18.5318C19.0232 14.4153 19.4044 13.5388 19.655 12.6085H0.344238C0.594899 13.5388 0.976028 14.4153 1.46747 15.2172Z" fill="#D80027"/>
<path d="M4.63213 1.56164H5.54341L4.69577 2.17746L5.01955 3.1739L4.17194 2.55808L3.32434 3.1739L3.60402 2.31308C2.8577 2.93476 2.20357 3.66312 1.66451 4.47468H1.9565L1.41694 4.86668C1.33287 5.00691 1.25225 5.14937 1.17499 5.29394L1.43264 6.08695L0.951942 5.73769C0.832451 5.99086 0.723156 6.24972 0.624915 6.51398L0.908778 7.38773H1.9565L1.10885 8.00355L1.43264 8.99999L0.585032 8.38417L0.0773038 8.75308C0.0264841 9.1616 0 9.57769 0 9.99999H9.99988C9.99988 4.47718 9.99988 3.82609 9.99988 0C8.02444 0 6.18294 0.573047 4.63213 1.56164ZM5.01955 8.99999L4.17194 8.38417L3.32434 8.99999L3.64812 8.00355L2.80047 7.38773H3.8482L4.17194 6.39128L4.49569 7.38773H5.54341L4.69577 8.00355L5.01955 8.99999ZM4.69577 5.0905L5.01955 6.08695L4.17194 5.47113L3.32434 6.08695L3.64812 5.0905L2.80047 4.47468H3.8482L4.17194 3.47824L4.49569 4.47468H5.54341L4.69577 5.0905ZM8.60646 8.99999L7.75885 8.38417L6.91125 8.99999L7.23503 8.00355L6.38739 7.38773H7.43511L7.75885 6.39128L8.0826 7.38773H9.13032L8.28268 8.00355L8.60646 8.99999ZM8.28268 5.0905L8.60646 6.08695L7.75885 5.47113L6.91125 6.08695L7.23503 5.0905L6.38739 4.47468H7.43511L7.75885 3.47824L8.0826 4.47468H9.13032L8.28268 5.0905ZM8.28268 2.17746L8.60646 3.1739L7.75885 2.55808L6.91125 3.1739L7.23503 2.17746L6.38739 1.56164H7.43511L7.75885 0.565195L8.0826 1.56164H9.13032L8.28268 2.17746Z" fill="#0052B4"/>
</svg>
