<svg width="14" height="14" viewBox="0 0 14 14" fill="none" xmlns="http://www.w3.org/2000/svg">
<path d="M2.57031 10.5547C3.22656 10.0929 3.92839 9.74957 4.67578 9.52474C5.42318 9.29991 6.19792 9.1875 7 9.1875C7.80208 9.1875 8.57682 9.29991 9.32422 9.52474C10.0716 9.74957 10.7734 10.0929 11.4297 10.5547C11.855 10.0564 12.171 9.50347 12.3776 8.89583C12.5842 8.28819 12.6875 7.65625 12.6875 7C12.6875 5.42409 12.1332 4.08219 11.0245 2.97431C9.91577 1.86644 8.57289 1.3125 6.99581 1.3125C5.41874 1.3125 4.07726 1.86644 2.97135 2.97431C1.86545 4.08219 1.3125 5.42409 1.3125 7C1.3125 7.65625 1.4158 8.28819 1.6224 8.89583C1.82899 9.50347 2.14497 10.0564 2.57031 10.5547ZM7 8.3125C6.27083 8.3125 5.65104 8.05729 5.14062 7.54688C4.63021 7.03646 4.375 6.41667 4.375 5.6875C4.375 4.95833 4.63021 4.33854 5.14062 3.82812C5.65104 3.31771 6.27083 3.0625 7 3.0625C7.72917 3.0625 8.34896 3.31771 8.85938 3.82812C9.36979 4.33854 9.625 4.95833 9.625 5.6875C9.625 6.41667 9.36979 7.03646 8.85938 7.54688C8.34896 8.05729 7.72917 8.3125 7 8.3125ZM7.00503 14C6.04161 14 5.13455 13.8177 4.28385 13.4531C3.43316 13.0885 2.6888 12.5872 2.05078 11.9492C1.41276 11.3112 0.911458 10.5671 0.546875 9.71691C0.182292 8.86672 0 7.9583 0 6.99165C0 6.02499 0.182292 5.11936 0.546875 4.27474C0.911458 3.43012 1.41276 2.6888 2.05078 2.05078C2.6888 1.41276 3.4329 0.911458 4.28309 0.546875C5.13329 0.182292 6.04171 0 7.00835 0C7.97501 0 8.88064 0.182292 9.72526 0.546875C10.5699 0.911458 11.3112 1.41276 11.9492 2.05078C12.5872 2.6888 13.0885 3.43148 13.4531 4.27882C13.8177 5.12618 14 6.03156 14 6.99497C14 7.95839 13.8177 8.86545 13.4531 9.71615C13.0885 10.5668 12.5872 11.3112 11.9492 11.9492C11.3112 12.5872 10.5685 13.0885 9.72118 13.4531C8.87383 13.8177 7.96844 14 7.00503 14ZM7 12.6875C7.63194 12.6875 8.23958 12.5872 8.82292 12.3867C9.40625 12.1862 9.95313 11.8915 10.4635 11.5026C9.94097 11.1745 9.38802 10.9253 8.80469 10.7552C8.22135 10.5851 7.61979 10.5 7 10.5C6.38021 10.5 5.77561 10.582 5.1862 10.7461C4.59679 10.9102 4.04688 11.1623 3.53646 11.5026C4.04688 11.8915 4.59375 12.1862 5.17708 12.3867C5.76042 12.5872 6.36806 12.6875 7 12.6875ZM7 7C7.36458 7 7.67448 6.8724 7.92969 6.61719C8.1849 6.36198 8.3125 6.05208 8.3125 5.6875C8.3125 5.32292 8.1849 5.01302 7.92969 4.75781C7.67448 4.5026 7.36458 4.375 7 4.375C6.63542 4.375 6.32552 4.5026 6.07031 4.75781C5.8151 5.01302 5.6875 5.32292 5.6875 5.6875C5.6875 6.05208 5.8151 6.36198 6.07031 6.61719C6.32552 6.8724 6.63542 7 7 7Z" fill="white"/>
</svg>
