<svg width="20" height="20" viewBox="0 0 20 20" fill="none" xmlns="http://www.w3.org/2000/svg">
<path d="M5.57031 13.5547C6.22656 13.0929 6.92839 12.7496 7.67578 12.5247C8.42318 12.2999 9.19792 12.1875 10 12.1875C10.8021 12.1875 11.5768 12.2999 12.3242 12.5247C13.0716 12.7496 13.7734 13.0929 14.4297 13.5547C14.855 13.0564 15.171 12.5035 15.3776 11.8958C15.5842 11.2882 15.6875 10.6562 15.6875 10C15.6875 8.42409 15.1332 7.08219 14.0245 5.97431C12.9158 4.86644 11.5729 4.3125 9.99581 4.3125C8.41874 4.3125 7.07726 4.86644 5.97135 5.97431C4.86545 7.08219 4.3125 8.42409 4.3125 10C4.3125 10.6562 4.4158 11.2882 4.6224 11.8958C4.82899 12.5035 5.14497 13.0564 5.57031 13.5547ZM10 11.3125C9.27083 11.3125 8.65104 11.0573 8.14062 10.5469C7.63021 10.0365 7.375 9.41667 7.375 8.6875C7.375 7.95833 7.63021 7.33854 8.14062 6.82812C8.65104 6.31771 9.27083 6.0625 10 6.0625C10.7292 6.0625 11.349 6.31771 11.8594 6.82812C12.3698 7.33854 12.625 7.95833 12.625 8.6875C12.625 9.41667 12.3698 10.0365 11.8594 10.5469C11.349 11.0573 10.7292 11.3125 10 11.3125ZM10.005 17C9.04161 17 8.13455 16.8177 7.28385 16.4531C6.43316 16.0885 5.6888 15.5872 5.05078 14.9492C4.41276 14.3112 3.91146 13.5671 3.54688 12.7169C3.18229 11.8667 3 10.9583 3 9.99165C3 9.02499 3.18229 8.11936 3.54688 7.27474C3.91146 6.43012 4.41276 5.6888 5.05078 5.05078C5.6888 4.41276 6.4329 3.91146 7.28309 3.54688C8.13329 3.18229 9.04171 3 10.0083 3C10.975 3 11.8806 3.18229 12.7253 3.54688C13.5699 3.91146 14.3112 4.41276 14.9492 5.05078C15.5872 5.6888 16.0885 6.43148 16.4531 7.27882C16.8177 8.12618 17 9.03156 17 9.99497C17 10.9584 16.8177 11.8655 16.4531 12.7161C16.0885 13.5668 15.5872 14.3112 14.9492 14.9492C14.3112 15.5872 13.5685 16.0885 12.7212 16.4531C11.8738 16.8177 10.9684 17 10.005 17ZM10 15.6875C10.6319 15.6875 11.2396 15.5872 11.8229 15.3867C12.4063 15.1862 12.9531 14.8915 13.4635 14.5026C12.941 14.1745 12.388 13.9253 11.8047 13.7552C11.2214 13.5851 10.6198 13.5 10 13.5C9.38021 13.5 8.77561 13.582 8.1862 13.7461C7.59679 13.9102 7.04688 14.1623 6.53646 14.5026C7.04688 14.8915 7.59375 15.1862 8.17708 15.3867C8.76042 15.5872 9.36806 15.6875 10 15.6875ZM10 10C10.3646 10 10.6745 9.8724 10.9297 9.61719C11.1849 9.36198 11.3125 9.05208 11.3125 8.6875C11.3125 8.32292 11.1849 8.01302 10.9297 7.75781C10.6745 7.5026 10.3646 7.375 10 7.375C9.63542 7.375 9.32552 7.5026 9.07031 7.75781C8.8151 8.01302 8.6875 8.32292 8.6875 8.6875C8.6875 9.05208 8.8151 9.36198 9.07031 9.61719C9.32552 9.8724 9.63542 10 10 10Z" fill="#070A21" fill-opacity="0.9"/>
</svg>
