<svg width="45" height="45" viewBox="0 0 45 45" fill="none" xmlns="http://www.w3.org/2000/svg">
<path d="M26.0719 26.3483L18.0257 26.3571H12.6779C12.5097 26.3579 12.343 26.3244 12.1881 26.2588C12.0332 26.1931 11.8932 26.0967 11.7767 25.9754C11.6601 25.854 11.5694 25.7102 11.5101 25.5528C11.4508 25.3953 11.4241 25.2275 11.4316 25.0594C11.4573 24.3844 12.0463 23.8733 12.7173 23.8733H16.5938L21.1894 16.0505L19.7012 13.5153C19.3661 12.9375 19.5147 12.1757 20.0893 11.8125C20.2309 11.7209 20.3896 11.6589 20.5559 11.6302C20.7221 11.6015 20.8924 11.6067 21.0566 11.6455C21.2207 11.6843 21.3754 11.7559 21.5111 11.856C21.6469 11.9561 21.7611 12.0826 21.8467 12.2279L22.6422 13.5868H22.6511L23.4474 12.2279C23.5331 12.0834 23.6471 11.9575 23.7825 11.8579C23.9179 11.7583 24.072 11.687 24.2355 11.6483C24.3991 11.6095 24.5688 11.6041 24.7345 11.6323C24.9002 11.6605 25.0585 11.7218 25.2 11.8125C25.7713 12.1757 25.9184 12.9375 25.5809 13.5177L24.0927 16.0529L22.6462 18.5191L19.5051 23.8757V23.8846H24.1345C24.7146 23.8846 25.4419 24.1963 25.736 24.6978L25.7617 24.75C26.0212 25.1912 26.1683 25.4941 26.1683 25.9353C26.1641 26.0785 26.1321 26.2196 26.0743 26.3507L26.0719 26.3483Z" fill="white"/>
<path d="M32.3196 26.3571H30.1412V26.366L31.7338 29.0748C31.9051 29.3601 31.9576 29.7012 31.8799 30.0248C31.8022 30.3484 31.6005 30.6285 31.3184 30.8049C31.1228 30.9242 30.8982 30.9873 30.6691 30.9873C30.4513 30.9872 30.2373 30.9308 30.0477 30.8235C29.8582 30.7162 29.6997 30.5617 29.5875 30.375L27.2338 26.3684L25.7713 23.8773L23.8846 20.6518C23.6113 20.1912 23.4627 19.6674 23.4536 19.1319C23.4444 18.5965 23.5749 18.0679 23.8323 17.5982C24.2052 16.9401 24.4904 16.7673 24.4904 16.7673L28.6875 23.8661H32.2963C32.9713 23.8661 33.5507 24.3852 33.5821 25.0513C33.5886 25.2207 33.5607 25.3896 33.5003 25.548C33.4399 25.7063 33.3481 25.8508 33.2304 25.9728C33.1127 26.0948 32.9716 26.1917 32.8155 26.2577C32.6594 26.3238 32.4915 26.3576 32.3221 26.3571H32.3196Z" fill="white"/>
<path d="M15.6696 30.3662C15.5592 30.5546 15.4011 30.7105 15.2112 30.8185C15.0213 30.9264 14.8064 30.9824 14.588 30.9809C14.3655 30.9828 14.1468 30.9227 13.9564 30.8073C13.8147 30.7252 13.6906 30.6159 13.5913 30.4857C13.4919 30.3555 13.4192 30.207 13.3774 30.0486C13.3356 29.8902 13.3255 29.7252 13.3476 29.5629C13.3698 29.4006 13.4237 29.2443 13.5064 29.1029L14.7351 27.0603C14.7972 26.9548 14.8858 26.8675 14.992 26.8069C15.0983 26.7462 15.2186 26.7145 15.341 26.7147H15.5226C16.4138 26.7147 17.0373 27.2507 17.2189 27.7698L15.6696 30.3662Z" fill="white"/>
<path d="M26.072 26.3483L18.0258 26.3571H12.678C12.5098 26.3579 12.3431 26.3244 12.1882 26.2588C12.0333 26.1931 11.8933 26.0967 11.7768 25.9754C11.6602 25.854 11.5695 25.7102 11.5102 25.5528C11.4509 25.3953 11.4242 25.2275 11.4317 25.0594C11.4574 24.3844 12.0464 23.8733 12.7174 23.8733H16.5938L21.1895 16.0505L19.7013 13.5153C19.3662 12.9375 19.5148 12.1757 20.0894 11.8125C20.231 11.7209 20.3897 11.6589 20.556 11.6302C20.7222 11.6015 20.8925 11.6067 21.0567 11.6455C21.2208 11.6843 21.3755 11.7559 21.5112 11.856C21.647 11.9561 21.7612 12.0826 21.8468 12.2279L22.6423 13.5868H22.6512L23.4475 12.2279C23.5332 12.0834 23.6472 11.9575 23.7826 11.8579C23.918 11.7583 24.0721 11.687 24.2356 11.6483C24.3992 11.6095 24.5689 11.6041 24.7346 11.6323C24.9003 11.6605 25.0586 11.7218 25.2001 11.8125C25.7714 12.1757 25.9185 12.9375 25.581 13.5177L24.0928 16.0529L22.6463 18.5191L19.5052 23.8757V23.8846H24.1346C24.7147 23.8846 25.442 24.1963 25.7361 24.6978L25.7618 24.75C26.0213 25.1912 26.1684 25.4941 26.1684 25.9353C26.1642 26.0785 26.1322 26.2196 26.0744 26.3507L26.072 26.3483Z" fill="white"/>
<path d="M32.3197 26.3571H30.1413V26.366L31.7339 29.0748C31.9052 29.3601 31.9577 29.7012 31.88 30.0248C31.8023 30.3484 31.6006 30.6285 31.3185 30.8049C31.1229 30.9242 30.8983 30.9873 30.6692 30.9873C30.4514 30.9872 30.2374 30.9308 30.0478 30.8235C29.8583 30.7162 29.6998 30.5617 29.5876 30.375L27.2339 26.3684L25.7714 23.8773L23.8847 20.6518C23.6114 20.1912 23.4628 19.6674 23.4537 19.1319C23.4445 18.5965 23.575 18.0679 23.8324 17.5982C24.2053 16.9401 24.4905 16.7673 24.4905 16.7673L28.6876 23.8661H32.2964C32.9714 23.8661 33.5508 24.3852 33.5822 25.0513C33.5887 25.2207 33.5609 25.3896 33.5004 25.548C33.44 25.7063 33.3482 25.8508 33.2305 25.9728C33.1128 26.0948 32.9717 26.1917 32.8156 26.2577C32.6595 26.3238 32.4916 26.3576 32.3222 26.3571H32.3197Z" fill="white"/>
<path d="M15.6697 30.3662C15.5593 30.5546 15.4012 30.7105 15.2113 30.8185C15.0214 30.9264 14.8065 30.9824 14.5881 30.9809C14.3656 30.9828 14.1469 30.9227 13.9565 30.8073C13.8148 30.7252 13.6907 30.6159 13.5914 30.4857C13.492 30.3555 13.4193 30.207 13.3775 30.0486C13.3357 29.8902 13.3256 29.7252 13.3477 29.5629C13.3699 29.4006 13.4238 29.2443 13.5065 29.1029L14.7352 27.0603C14.7973 26.9548 14.8859 26.8675 14.9921 26.8069C15.0984 26.7462 15.2187 26.7145 15.3411 26.7147H15.5227C16.4139 26.7147 17.0374 27.2507 17.219 27.7698L15.6697 30.3662Z" fill="white"/>
</svg>
