<svg width="38" height="18" viewBox="0 0 38 18" fill="none" xmlns="http://www.w3.org/2000/svg">
<path d="M2.98828 1.79297C2.67318 1.79297 2.38932 1.84766 2.13672 1.95703C1.88672 2.0638 1.67318 2.22005 1.49609 2.42578C1.32161 2.62891 1.1875 2.875 1.09375 3.16406C1 3.45312 0.953125 3.77865 0.953125 4.14062C0.953125 4.61979 1.02734 5.03646 1.17578 5.39062C1.32682 5.74219 1.55078 6.01432 1.84766 6.20703C2.14714 6.39974 2.52083 6.49609 2.96875 6.49609C3.22396 6.49609 3.46354 6.47526 3.6875 6.43359C3.91406 6.38932 4.13411 6.33464 4.34766 6.26953V6.84766C4.13932 6.92578 3.92057 6.98307 3.69141 7.01953C3.46224 7.05859 3.1901 7.07812 2.875 7.07812C2.29427 7.07812 1.80859 6.95833 1.41797 6.71875C1.02995 6.47656 0.738281 6.13542 0.542969 5.69531C0.35026 5.25521 0.253906 4.73568 0.253906 4.13672C0.253906 3.70443 0.313802 3.3099 0.433594 2.95312C0.55599 2.59375 0.733073 2.28385 0.964844 2.02344C1.19922 1.76302 1.48568 1.5625 1.82422 1.42188C2.16536 1.27865 2.55599 1.20703 2.99609 1.20703C3.28516 1.20703 3.5638 1.23568 3.83203 1.29297C4.10026 1.35026 4.34245 1.43229 4.55859 1.53906L4.29297 2.10156C4.11068 2.01823 3.91016 1.94661 3.69141 1.88672C3.47526 1.82422 3.24089 1.79297 2.98828 1.79297ZM9.17969 4.85156C9.17969 5.20312 9.13411 5.51693 9.04297 5.79297C8.95182 6.06901 8.82031 6.30208 8.64844 6.49219C8.47656 6.68229 8.26823 6.82812 8.02344 6.92969C7.78125 7.02865 7.50651 7.07812 7.19922 7.07812C6.91276 7.07812 6.64974 7.02865 6.41016 6.92969C6.17318 6.82812 5.96745 6.68229 5.79297 6.49219C5.62109 6.30208 5.48698 6.06901 5.39062 5.79297C5.29688 5.51693 5.25 5.20312 5.25 4.85156C5.25 4.38281 5.32943 3.98438 5.48828 3.65625C5.64714 3.32552 5.8737 3.07422 6.16797 2.90234C6.46484 2.72786 6.81771 2.64062 7.22656 2.64062C7.61719 2.64062 7.95833 2.72786 8.25 2.90234C8.54427 3.07682 8.77214 3.32943 8.93359 3.66016C9.09766 3.98828 9.17969 4.38542 9.17969 4.85156ZM5.92188 4.85156C5.92188 5.19531 5.96745 5.49349 6.05859 5.74609C6.14974 5.9987 6.29036 6.19401 6.48047 6.33203C6.67057 6.47005 6.91536 6.53906 7.21484 6.53906C7.51172 6.53906 7.75521 6.47005 7.94531 6.33203C8.13802 6.19401 8.27995 5.9987 8.37109 5.74609C8.46224 5.49349 8.50781 5.19531 8.50781 4.85156C8.50781 4.51042 8.46224 4.21615 8.37109 3.96875C8.27995 3.71875 8.13932 3.52604 7.94922 3.39062C7.75911 3.25521 7.51302 3.1875 7.21094 3.1875C6.76562 3.1875 6.4388 3.33464 6.23047 3.62891C6.02474 3.92318 5.92188 4.33073 5.92188 4.85156ZM12.3125 2.64062C12.8464 2.64062 13.2721 2.82422 13.5898 3.19141C13.9076 3.55859 14.0664 4.11068 14.0664 4.84766C14.0664 5.33464 13.9935 5.74349 13.8477 6.07422C13.7018 6.40495 13.4961 6.65495 13.2305 6.82422C12.9674 6.99349 12.6562 7.07812 12.2969 7.07812C12.0703 7.07812 11.8711 7.04818 11.6992 6.98828C11.5273 6.92839 11.3802 6.84766 11.2578 6.74609C11.1354 6.64453 11.0339 6.53385 10.9531 6.41406H10.9062C10.9141 6.51562 10.9232 6.63802 10.9336 6.78125C10.9466 6.92448 10.9531 7.04948 10.9531 7.15625V8.91406H10.3008V2.71875H10.8359L10.9219 3.35156H10.9531C11.0365 3.22135 11.138 3.10286 11.2578 2.99609C11.3776 2.88672 11.5234 2.80078 11.6953 2.73828C11.8698 2.67318 12.0755 2.64062 12.3125 2.64062ZM12.1992 3.1875C11.9023 3.1875 11.6628 3.24479 11.4805 3.35938C11.3008 3.47396 11.1693 3.64583 11.0859 3.875C11.0026 4.10156 10.9583 4.38672 10.9531 4.73047V4.85547C10.9531 5.21745 10.9922 5.52344 11.0703 5.77344C11.151 6.02344 11.2826 6.21354 11.4648 6.34375C11.6497 6.47396 11.8971 6.53906 12.207 6.53906C12.4727 6.53906 12.694 6.46745 12.8711 6.32422C13.0482 6.18099 13.1797 5.98177 13.2656 5.72656C13.3542 5.46875 13.3984 5.17318 13.3984 4.83984C13.3984 4.33464 13.2995 3.93359 13.1016 3.63672C12.9062 3.33724 12.6055 3.1875 12.1992 3.1875ZM14.5234 2.71875H15.2188L16.1641 5.20312C16.2188 5.34896 16.2695 5.48958 16.3164 5.625C16.3633 5.75781 16.4049 5.88542 16.4414 6.00781C16.4779 6.13021 16.5065 6.2487 16.5273 6.36328H16.5547C16.5911 6.23307 16.6432 6.0625 16.7109 5.85156C16.7786 5.63802 16.8516 5.42057 16.9297 5.19922L17.8242 2.71875H18.5234L16.6602 7.62891C16.5612 7.89193 16.4453 8.12109 16.3125 8.31641C16.1823 8.51172 16.0234 8.66146 15.8359 8.76562C15.6484 8.8724 15.4219 8.92578 15.1562 8.92578C15.0339 8.92578 14.9258 8.91797 14.832 8.90234C14.7383 8.88932 14.6576 8.8737 14.5898 8.85547V8.33594C14.6471 8.34896 14.7161 8.36068 14.7969 8.37109C14.8802 8.38151 14.9661 8.38672 15.0547 8.38672C15.2161 8.38672 15.3555 8.35547 15.4727 8.29297C15.5924 8.23307 15.6953 8.14453 15.7812 8.02734C15.8672 7.91016 15.9414 7.77083 16.0039 7.60938L16.2383 7.00781L14.5234 2.71875ZM21.1523 2.64062C21.2383 2.64062 21.3281 2.64583 21.4219 2.65625C21.5156 2.66406 21.599 2.67578 21.6719 2.69141L21.5898 3.29297C21.5195 3.27474 21.4414 3.26042 21.3555 3.25C21.2695 3.23958 21.1888 3.23438 21.1133 3.23438C20.9414 3.23438 20.7786 3.26953 20.625 3.33984C20.474 3.40755 20.3411 3.50651 20.2266 3.63672C20.112 3.76432 20.0221 3.91927 19.957 4.10156C19.8919 4.28125 19.8594 4.48177 19.8594 4.70312V7H19.207V2.71875H19.7461L19.8164 3.50781H19.8438C19.9323 3.34896 20.0391 3.20443 20.1641 3.07422C20.2891 2.94141 20.4336 2.83594 20.5977 2.75781C20.7643 2.67969 20.9492 2.64062 21.1523 2.64062ZM23.1289 2.71875V7H22.4805V2.71875H23.1289ZM22.8125 1.11719C22.9193 1.11719 23.0104 1.15234 23.0859 1.22266C23.1641 1.29036 23.2031 1.39714 23.2031 1.54297C23.2031 1.6862 23.1641 1.79297 23.0859 1.86328C23.0104 1.93359 22.9193 1.96875 22.8125 1.96875C22.7005 1.96875 22.6068 1.93359 22.5312 1.86328C22.4583 1.79297 22.4219 1.6862 22.4219 1.54297C22.4219 1.39714 22.4583 1.29036 22.5312 1.22266C22.6068 1.15234 22.7005 1.11719 22.8125 1.11719ZM25.6992 8.92188C25.1367 8.92188 24.7031 8.81641 24.3984 8.60547C24.0938 8.39714 23.9414 8.10417 23.9414 7.72656C23.9414 7.45833 24.026 7.22917 24.1953 7.03906C24.3672 6.84896 24.6042 6.72266 24.9062 6.66016C24.7943 6.60807 24.6979 6.52995 24.6172 6.42578C24.5391 6.32161 24.5 6.20182 24.5 6.06641C24.5 5.91016 24.543 5.77344 24.6289 5.65625C24.7174 5.53646 24.8516 5.42188 25.0312 5.3125C24.8073 5.22135 24.625 5.06771 24.4844 4.85156C24.3464 4.63281 24.2773 4.37891 24.2773 4.08984C24.2773 3.78255 24.3411 3.52083 24.4688 3.30469C24.5964 3.08594 24.7812 2.91927 25.0234 2.80469C25.2656 2.6901 25.5586 2.63281 25.9023 2.63281C25.9779 2.63281 26.0534 2.63672 26.1289 2.64453C26.207 2.64974 26.2812 2.65885 26.3516 2.67188C26.4219 2.68229 26.4831 2.69531 26.5352 2.71094H28.0039V3.12891L27.2148 3.22656C27.293 3.32812 27.3581 3.45052 27.4102 3.59375C27.4622 3.73698 27.4883 3.89583 27.4883 4.07031C27.4883 4.4974 27.3438 4.83724 27.0547 5.08984C26.7656 5.33984 26.3685 5.46484 25.8633 5.46484C25.7435 5.46484 25.6211 5.45443 25.4961 5.43359C25.3685 5.50391 25.2708 5.58203 25.2031 5.66797C25.138 5.75391 25.1055 5.85286 25.1055 5.96484C25.1055 6.04818 25.1302 6.11458 25.1797 6.16406C25.2318 6.21354 25.306 6.25 25.4023 6.27344C25.4987 6.29427 25.6146 6.30469 25.75 6.30469H26.5039C26.9701 6.30469 27.3268 6.40234 27.5742 6.59766C27.8242 6.79297 27.9492 7.07812 27.9492 7.45312C27.9492 7.92708 27.7565 8.29036 27.3711 8.54297C26.9857 8.79557 26.4284 8.92188 25.6992 8.92188ZM25.7188 8.41406C26.0729 8.41406 26.3659 8.3776 26.5977 8.30469C26.832 8.23438 27.0065 8.13151 27.1211 7.99609C27.2383 7.86328 27.2969 7.70443 27.2969 7.51953C27.2969 7.34766 27.2578 7.21745 27.1797 7.12891C27.1016 7.04297 26.987 6.98568 26.8359 6.95703C26.6849 6.92578 26.5 6.91016 26.2812 6.91016H25.5391C25.3464 6.91016 25.1784 6.9401 25.0352 7C24.8919 7.0599 24.7812 7.14844 24.7031 7.26562C24.6276 7.38281 24.5898 7.52865 24.5898 7.70312C24.5898 7.9349 24.6875 8.11068 24.8828 8.23047C25.0781 8.35286 25.3568 8.41406 25.7188 8.41406ZM25.8867 4.99219C26.1966 4.99219 26.4297 4.91406 26.5859 4.75781C26.7422 4.60156 26.8203 4.3737 26.8203 4.07422C26.8203 3.75391 26.7409 3.51432 26.582 3.35547C26.4232 3.19401 26.1888 3.11328 25.8789 3.11328C25.582 3.11328 25.3529 3.19661 25.1914 3.36328C25.0326 3.52734 24.9531 3.76823 24.9531 4.08594C24.9531 4.3776 25.0339 4.60156 25.1953 4.75781C25.3568 4.91406 25.5872 4.99219 25.8867 4.99219ZM29.4961 0.921875V2.73828C29.4961 2.84245 29.4935 2.94792 29.4883 3.05469C29.4831 3.15885 29.474 3.25521 29.4609 3.34375H29.5039C29.5924 3.19271 29.7044 3.06641 29.8398 2.96484C29.9779 2.86068 30.1341 2.78255 30.3086 2.73047C30.4831 2.67578 30.668 2.64844 30.8633 2.64844C31.207 2.64844 31.4935 2.70312 31.7227 2.8125C31.9544 2.92188 32.1276 3.09115 32.2422 3.32031C32.3594 3.54948 32.418 3.84635 32.418 4.21094V7H31.7773V4.25391C31.7773 3.89714 31.6953 3.63021 31.5312 3.45312C31.3698 3.27604 31.1211 3.1875 30.7852 3.1875C30.4674 3.1875 30.2135 3.2487 30.0234 3.37109C29.8359 3.49089 29.7005 3.66797 29.6172 3.90234C29.5365 4.13672 29.4961 4.42318 29.4961 4.76172V7H28.8477V0.921875H29.4961ZM35.1367 6.54688C35.2435 6.54688 35.3529 6.53776 35.4648 6.51953C35.5768 6.5013 35.668 6.47917 35.7383 6.45312V6.95703C35.6628 6.99089 35.5573 7.01953 35.4219 7.04297C35.2891 7.06641 35.1589 7.07812 35.0312 7.07812C34.8047 7.07812 34.599 7.03906 34.4141 6.96094C34.2292 6.88021 34.0807 6.74479 33.9688 6.55469C33.8594 6.36458 33.8047 6.10156 33.8047 5.76562V3.22656H33.1953V2.91016L33.8086 2.65625L34.0664 1.72656H34.457V2.71875H35.7109V3.22656H34.457V5.74609C34.457 6.01432 34.5182 6.21484 34.6406 6.34766C34.7656 6.48047 34.931 6.54688 35.1367 6.54688ZM14.2812 17.0781C13.8568 17.0781 13.4648 17.0052 13.1055 16.8594C12.7487 16.7135 12.4375 16.5091 12.1719 16.2461C11.9089 15.9831 11.7044 15.6732 11.5586 15.3164C11.4154 14.957 11.3438 14.5664 11.3438 14.1445C11.3438 13.7201 11.4167 13.3294 11.5625 12.9727C11.7083 12.6133 11.9128 12.3021 12.1758 12.0391C12.4414 11.776 12.7526 11.5716 13.1094 11.4258C13.4688 11.2799 13.8594 11.207 14.2812 11.207C14.6901 11.207 15.0716 11.2812 15.4258 11.4297C15.7826 11.5755 16.0951 11.7812 16.3633 12.0469C16.6315 12.3099 16.8411 12.6198 16.9922 12.9766C17.1432 13.3333 17.2188 13.7227 17.2188 14.1445C17.2188 14.5664 17.1458 14.957 17 15.3164C16.8542 15.6732 16.6484 15.9831 16.3828 16.2461C16.1198 16.5091 15.8086 16.7135 15.4492 16.8594C15.0924 17.0052 14.7031 17.0781 14.2812 17.0781ZM14.4062 15.9297C13.8802 15.9297 13.4844 15.7682 13.2188 15.4453C12.9531 15.1198 12.8203 14.6862 12.8203 14.1445C12.8203 13.7982 12.8828 13.4922 13.0078 13.2266C13.1354 12.9583 13.319 12.7487 13.5586 12.5977C13.8008 12.444 14.0938 12.3672 14.4375 12.3672C14.6094 12.3672 14.7799 12.388 14.9492 12.4297C15.1185 12.4714 15.2773 12.5299 15.4258 12.6055L15.207 13.0586C15.0768 12.9909 14.9479 12.9401 14.8203 12.9062C14.6927 12.8698 14.5677 12.8516 14.4453 12.8516C14.1146 12.8516 13.8581 12.9674 13.6758 13.1992C13.4935 13.4284 13.4023 13.7435 13.4023 14.1445C13.4023 14.5612 13.4844 14.8815 13.6484 15.1055C13.8151 15.3294 14.0768 15.4414 14.4336 15.4414C14.5638 15.4414 14.7031 15.4245 14.8516 15.3906C15.0026 15.3568 15.1458 15.3125 15.2812 15.2578V15.7344C15.1536 15.7917 15.0221 15.8385 14.8867 15.875C14.7513 15.9115 14.5911 15.9297 14.4062 15.9297ZM14.2812 16.6797C14.6276 16.6797 14.9518 16.6172 15.2539 16.4922C15.5586 16.3672 15.8255 16.1914 16.0547 15.9648C16.2839 15.7357 16.4635 15.4674 16.5938 15.1602C16.724 14.8503 16.7891 14.5117 16.7891 14.1445C16.7891 13.7956 16.7266 13.4688 16.6016 13.1641C16.4792 12.8594 16.306 12.5898 16.082 12.3555C15.8581 12.1211 15.5924 11.9388 15.2852 11.8086C14.9805 11.6758 14.6458 11.6094 14.2812 11.6094C13.9167 11.6094 13.5807 11.6719 13.2734 11.7969C12.9688 11.9219 12.7031 12.099 12.4766 12.3281C12.2526 12.5547 12.0781 12.8229 11.9531 13.1328C11.8307 13.4401 11.7695 13.7773 11.7695 14.1445C11.7695 14.4935 11.8307 14.8216 11.9531 15.1289C12.0755 15.4336 12.2487 15.7031 12.4727 15.9375C12.6992 16.1693 12.9648 16.3516 13.2695 16.4844C13.5768 16.6146 13.9141 16.6797 14.2812 16.6797ZM23.8242 17H20.082V16.457L21.6094 14.9062C21.8932 14.6198 22.1315 14.3646 22.3242 14.1406C22.5195 13.9167 22.668 13.6966 22.7695 13.4805C22.8711 13.2617 22.9219 13.0221 22.9219 12.7617C22.9219 12.4388 22.8255 12.1927 22.6328 12.0234C22.4427 11.8516 22.1914 11.7656 21.8789 11.7656C21.6055 11.7656 21.3633 11.8125 21.1523 11.9062C20.9414 12 20.7253 12.1328 20.5039 12.3047L20.1562 11.8672C20.3073 11.7396 20.4714 11.6263 20.6484 11.5273C20.8281 11.4284 21.0195 11.3503 21.2227 11.293C21.4284 11.2357 21.6471 11.207 21.8789 11.207C22.2305 11.207 22.5339 11.2682 22.7891 11.3906C23.0443 11.513 23.2409 11.6875 23.3789 11.9141C23.5195 12.1406 23.5898 12.4102 23.5898 12.7227C23.5898 13.0247 23.5299 13.306 23.4102 13.5664C23.2904 13.8242 23.1224 14.0807 22.9062 14.3359C22.6901 14.5885 22.4375 14.8568 22.1484 15.1406L20.9062 16.3789V16.4062H23.8242V17ZM28.4336 14.1367C28.4336 14.6003 28.3984 15.0143 28.3281 15.3789C28.2578 15.7435 28.1471 16.0521 27.9961 16.3047C27.8451 16.5573 27.6497 16.75 27.4102 16.8828C27.1706 17.013 26.8828 17.0781 26.5469 17.0781C26.1224 17.0781 25.7708 16.9622 25.4922 16.7305C25.2161 16.4987 25.0091 16.1641 24.8711 15.7266C24.7357 15.2865 24.668 14.7565 24.668 14.1367C24.668 13.5273 24.7292 13.0039 24.8516 12.5664C24.9766 12.1263 25.1771 11.7891 25.4531 11.5547C25.7292 11.3177 26.0938 11.1992 26.5469 11.1992C26.9766 11.1992 27.3307 11.3164 27.6094 11.5508C27.888 11.7826 28.0951 12.1185 28.2305 12.5586C28.3659 12.9961 28.4336 13.5221 28.4336 14.1367ZM25.3203 14.1367C25.3203 14.668 25.3607 15.1107 25.4414 15.4648C25.5221 15.819 25.6523 16.0846 25.832 16.2617C26.0143 16.4362 26.2526 16.5234 26.5469 16.5234C26.8411 16.5234 27.0781 16.4362 27.2578 16.2617C27.4401 16.0872 27.5716 15.8229 27.6523 15.4688C27.7357 15.1146 27.7773 14.6706 27.7773 14.1367C27.7773 13.6133 27.737 13.1758 27.6562 12.8242C27.5755 12.4701 27.4453 12.2044 27.2656 12.0273C27.0859 11.8477 26.8464 11.7578 26.5469 11.7578C26.2474 11.7578 26.0078 11.8477 25.8281 12.0273C25.6484 12.2044 25.5182 12.4701 25.4375 12.8242C25.3594 13.1758 25.3203 13.6133 25.3203 14.1367ZM32.9805 17H29.2383V16.457L30.7656 14.9062C31.0495 14.6198 31.2878 14.3646 31.4805 14.1406C31.6758 13.9167 31.8242 13.6966 31.9258 13.4805C32.0273 13.2617 32.0781 13.0221 32.0781 12.7617C32.0781 12.4388 31.9818 12.1927 31.7891 12.0234C31.599 11.8516 31.3477 11.7656 31.0352 11.7656C30.7617 11.7656 30.5195 11.8125 30.3086 11.9062C30.0977 12 29.8815 12.1328 29.6602 12.3047L29.3125 11.8672C29.4635 11.7396 29.6276 11.6263 29.8047 11.5273C29.9844 11.4284 30.1758 11.3503 30.3789 11.293C30.5846 11.2357 30.8034 11.207 31.0352 11.207C31.3867 11.207 31.6901 11.2682 31.9453 11.3906C32.2005 11.513 32.3971 11.6875 32.5352 11.9141C32.6758 12.1406 32.7461 12.4102 32.7461 12.7227C32.7461 13.0247 32.6862 13.306 32.5664 13.5664C32.4466 13.8242 32.2786 14.0807 32.0625 14.3359C31.8464 14.5885 31.5938 14.8568 31.3047 15.1406L30.0625 16.3789V16.4062H32.9805V17ZM37.8438 15.6758H36.9883V17H36.3555V15.6758H33.5938V15.1289L36.3125 11.2578H36.9883V15.0898H37.8438V15.6758ZM36.3555 15.0898V13.2227C36.3555 13.0794 36.3568 12.9505 36.3594 12.8359C36.362 12.7188 36.3659 12.6107 36.3711 12.5117C36.3763 12.4102 36.3802 12.3138 36.3828 12.2227C36.388 12.1315 36.3919 12.0417 36.3945 11.9531H36.3633C36.3138 12.0573 36.2565 12.168 36.1914 12.2852C36.1289 12.3997 36.0651 12.5026 36 12.5938L34.2383 15.0898H36.3555Z" fill="white"/>
</svg>
