<svg width="45" height="45" viewBox="0 0 45 45" fill="none" xmlns="http://www.w3.org/2000/svg">
<path d="M12.3869 11.2651C12.8523 11.2109 13.3242 11.3035 13.7218 11.5272L27.279 18.4454L23.848 21.5627L12.3869 11.2651ZM11.3441 12.2013C11.2787 12.4051 11.2471 12.6164 11.2502 12.8285V32.1693C11.2471 32.3813 11.2787 32.5927 11.3441 32.7965L22.8156 22.4989L11.3441 12.2013ZM23.8584 23.435L12.3869 33.7326C12.8525 33.7918 13.3263 33.6987 13.7218 33.4705L27.279 26.5524L23.8584 23.435ZM32.7436 21.2444L28.6348 19.1475L24.8804 22.4989L28.6243 25.8596L32.7332 23.7627C34.0889 23.0699 34.0889 21.9278 32.7332 21.2351L32.7436 21.2444Z" fill="white"/>
</svg>
