<svg width="253" height="40" viewBox="0 0 253 40" fill="none" xmlns="http://www.w3.org/2000/svg">
<path fill-rule="evenodd" clip-rule="evenodd" d="M23.3959 11.391C23.3959 9.93424 22.6345 8.9833 21.1119 8.55842C19.5892 8.13353 18.2105 7.91097 16.9348 7.91097C15.563 7.91097 14.3352 8.10656 13.2515 8.49772C12.1815 8.88214 11.3996 9.63075 10.9057 10.7233H1.07C1.4541 7.72888 2.82589 5.2605 5.18537 3.31816C7.83292 1.10606 11.5985 0 16.4821 0C21.9761 0 26.0914 0.890238 28.8282 2.73141C30.7007 3.98584 32.0382 5.8877 32.676 7.80981C28.6018 8.63935 26.647 10.8649 23.3547 11.7956C23.4576 11.5326 23.3959 11.6743 23.3959 11.391ZM26.3795 11.998C28.5812 10.8852 30.4537 10.0354 31.9353 9.40819C33.5403 8.72028 35.1864 8.1133 36.956 7.70864C39.5899 7.08143 42.0591 6.91958 44.8164 6.91958V13.6368C42.5529 13.6368 40.557 13.7785 38.5199 14.2438C36.6268 14.6889 34.8572 15.3364 33.0876 16.085V23.9757C33.0876 27.8199 32.388 30.8346 30.9682 32.9995C29.5415 35.1576 27.8473 36.7223 25.8857 37.6935C23.828 38.7456 21.6468 39.3998 19.3422 39.656C17.0376 39.8786 15.0005 40 13.2309 40C9.71228 40 6.62575 39.0693 3.97133 37.1877C1.32378 35.3128 0 32.2037 0 27.8604C0 23.8139 1.21404 20.9206 3.62153 19.1806C9.17728 15.134 19.8567 15.0126 26.3795 11.998ZM15.659 22.2964C14.8359 22.4718 14.4244 22.5594 14.4244 22.5594C12.6548 23.045 11.3721 23.6722 10.5765 24.4411C9.89746 25.4932 9.54766 26.5453 9.54766 27.6176C9.54766 29.0541 10.0003 30.2074 10.8852 31.0774C11.77 31.8462 13.0457 32.2306 14.7124 32.2306C17.4492 32.2306 19.6303 31.4618 21.1942 29.9241C22.758 28.3864 23.5399 26.262 23.5399 23.5711V20.2529C21.1942 21.1027 18.6221 21.8513 15.659 22.2964ZM54.364 26.5453H64.3644C64.4467 28.4674 65.1875 29.9039 66.5661 30.8751C68.0339 31.8327 69.9887 32.3116 72.4305 32.3116C74.2001 32.3116 75.7228 31.9879 76.978 31.3C78.1577 30.6255 78.7476 29.7151 78.7476 28.5685C78.7476 25.1088 71.2576 24.6839 68.6032 23.7936C63.3973 22.5392 59.9198 21.0622 58.1502 19.3222C56.1954 17.6024 55.2077 15.2959 55.2077 12.4026C55.2077 8.74726 56.6275 5.71236 59.4671 3.29792C56.1337 6.1305 55.8661 9.34749 57.2036 11.4517C59.1996 14.6282 65.6196 14.3045 69.0765 14.4664C74.1384 16.348 82.9659 17.2989 86.2581 20.0506C88.1306 21.7906 89.0566 24.0971 89.0566 26.9904C89.0566 31.2258 87.4859 34.5035 84.3445 36.8235C81.402 38.9479 76.9986 40 71.1136 40C65.5304 40 61.367 38.8939 58.6234 36.6818C55.29 34.0718 54.364 30.5716 54.364 26.5453Z" fill="#0973B9"/>
<path d="M69.1176 14.4664C69.1176 14.4664 65.4961 13.2929 65.4961 10.8043C65.4961 8.37633 68.7267 7.74911 71.093 7.74911C73.1507 7.74911 74.7694 8.18749 75.9491 9.06424C77.6158 10.7638 78.6241 12.7061 81.3814 12.7061H87.6985C87.5065 8.84842 85.9906 5.71911 83.151 3.31816C80.1194 1.10606 76.052 0 70.9489 0C66.2437 0 62.4164 1.09931 59.4671 3.29792C56.1336 6.1305 55.8661 9.34749 57.2036 11.4517C59.2201 14.6485 65.6607 14.3045 69.1176 14.4664Z" fill="#00AB64"/>
<path d="M49.8166 39.2109H43.1702C41.236 39.2109 39.6516 37.653 39.6516 35.7511V0H46.2979C48.2321 0 49.8166 1.53768 49.8166 3.43955V6.91958H54.364V9.52959C54.364 11.7956 52.471 13.6368 50.1664 13.6368H49.8166V39.2109Z" fill="#0973B9"/>
<path d="M103.106 19.7338H97.3585L103.834 0.26616H111.114L117.59 19.7338H111.842L107.551 5.62738H107.398L103.106 19.7338ZM102.033 12.0532H112.839V16.0076H102.033V12.0532Z" fill="#00AB64"/>
<path d="M127.028 19.7338H119.479V0.26616H126.951C128.969 0.26616 130.713 0.655894 132.181 1.43536C133.657 2.20849 134.793 3.32383 135.592 4.78137C136.396 6.23257 136.799 7.97212 136.799 10C136.799 12.0279 136.4 13.7706 135.601 15.2281C134.803 16.6793 133.673 17.7947 132.21 18.5741C130.748 19.3473 129.02 19.7338 127.028 19.7338ZM124.805 15.2471H126.836C127.807 15.2471 128.634 15.0919 129.317 14.7814C130.007 14.4708 130.531 13.9354 130.888 13.1749C131.252 12.4144 131.434 11.3561 131.434 10C131.434 8.64385 131.249 7.58555 130.879 6.82509C130.515 6.06464 129.978 5.52915 129.269 5.21863C128.567 4.90811 127.705 4.75285 126.683 4.75285H124.805V15.2471Z" fill="#00AB64"/>
<path d="M143.389 0.26616L147.413 13.9924H147.566L151.589 0.26616H157.605L151.129 19.7338H143.849L137.373 0.26616H143.389Z" fill="#00AB64"/>
<path d="M161.377 19.7338H155.629L162.105 0.26616H169.385L175.861 19.7338H170.113L165.821 5.62738H165.668L161.377 19.7338ZM160.304 12.0532H171.109V16.0076H160.304V12.0532Z" fill="#00AB64"/>
<path d="M194.724 0.26616V19.7338H190.28L183.191 9.5057H183.076V19.7338H177.75V0.26616H182.271L189.245 10.4563H189.398V0.26616H194.724Z" fill="#00AB64"/>
<path d="M215.559 7.56654H210.157C210.118 7.12294 210.016 6.72053 209.85 6.35932C209.69 5.9981 209.467 5.68758 209.18 5.42776C208.899 5.1616 208.557 4.95881 208.155 4.81939C207.752 4.67364 207.296 4.60076 206.785 4.60076C205.891 4.60076 205.134 4.81622 204.514 5.24715C203.901 5.67807 203.435 6.29594 203.116 7.10076C202.803 7.90558 202.647 8.87199 202.647 10C202.647 11.1914 202.806 12.1895 203.125 12.9943C203.451 13.7928 203.921 14.3948 204.534 14.8004C205.147 15.1996 205.884 15.3992 206.746 15.3992C207.238 15.3992 207.679 15.339 208.068 15.2186C208.458 15.0919 208.796 14.9113 209.084 14.6768C209.371 14.4423 209.604 14.1603 209.783 13.8308C209.968 13.4949 210.093 13.1179 210.157 12.6996L215.559 12.7376C215.495 13.5615 215.262 14.4011 214.86 15.2567C214.458 16.1058 213.886 16.8916 213.145 17.6141C212.411 18.3302 211.501 18.9068 210.415 19.3441C209.33 19.7814 208.068 20 206.631 20C204.831 20 203.215 19.6166 201.784 18.8498C200.36 18.083 199.233 16.955 198.403 15.4658C197.579 13.9766 197.167 12.1546 197.167 10C197.167 7.8327 197.589 6.0076 198.432 4.52472C199.275 3.03549 200.411 1.91065 201.842 1.15019C203.272 0.383397 204.869 0 206.631 0C207.87 0 209.01 0.167934 210.051 0.503802C211.092 0.839671 212.005 1.3308 212.791 1.97719C213.576 2.61724 214.209 3.40621 214.688 4.34411C215.167 5.282 215.457 6.35615 215.559 7.56654Z" fill="#00AB64"/>
<path d="M217.976 19.7338V0.26616H232.115V4.52472H223.302V7.87072H231.387V12.1293H223.302V15.4753H232.076V19.7338H217.976Z" fill="#00AB64"/>
<path d="M242.305 19.7338H234.756V0.26616H242.228C244.246 0.26616 245.989 0.655894 247.458 1.43536C248.933 2.20849 250.07 3.32383 250.868 4.78137C251.673 6.23257 252.075 7.97212 252.075 10C252.075 12.0279 251.676 13.7706 250.878 15.2281C250.08 16.6793 248.949 17.7947 247.487 18.5741C246.025 19.3473 244.297 19.7338 242.305 19.7338ZM240.082 15.2471H242.113C243.084 15.2471 243.911 15.0919 244.594 14.7814C245.284 14.4708 245.807 13.9354 246.165 13.1749C246.529 12.4144 246.711 11.3561 246.711 10C246.711 8.64385 246.526 7.58555 246.156 6.82509C245.791 6.06464 245.255 5.52915 244.546 5.21863C243.844 4.90811 242.982 4.75285 241.96 4.75285H240.082V15.2471Z" fill="#00AB64"/>
<path d="M102.297 25.9085V27.2429H97.3585V25.9085H102.297ZM98.7978 23.4531H100.262V33.2211C100.262 33.6659 100.322 33.9995 100.442 34.2219C100.566 34.4399 100.723 34.5867 100.913 34.6623C101.108 34.7334 101.313 34.769 101.528 34.769C101.689 34.769 101.821 34.7601 101.925 34.7423C102.028 34.7201 102.111 34.7023 102.173 34.689L102.471 36.1034C102.371 36.1435 102.233 36.1835 102.055 36.2235C101.877 36.268 101.652 36.2903 101.379 36.2903C100.965 36.2903 100.56 36.1946 100.163 36.0034C99.7698 35.8121 99.4431 35.5207 99.1825 35.1293C98.9261 34.7379 98.7978 34.2442 98.7978 33.6481V23.4531Z" fill="#54565B"/>
<path d="M108.421 36.2907C107.503 36.2907 106.71 36.0728 106.045 35.6368C105.383 35.1965 104.872 34.5827 104.512 33.7953C104.156 33.0036 103.979 32.0828 103.979 31.0331C103.979 29.9833 104.156 29.0581 104.512 28.2575C104.872 27.4524 105.372 26.8252 106.014 26.376C106.659 25.9222 107.412 25.6954 108.272 25.6954C108.768 25.6954 109.258 25.7844 109.742 25.9623C110.226 26.1402 110.667 26.4293 111.064 26.8297C111.461 27.2255 111.777 27.7504 112.013 28.4043C112.249 29.0581 112.366 29.8632 112.366 30.8196V31.4868H105.021V30.1257H110.878C110.878 29.5474 110.77 29.0315 110.555 28.5777C110.344 28.124 110.042 27.766 109.649 27.5035C109.26 27.2411 108.801 27.1099 108.272 27.1099C107.689 27.1099 107.184 27.2656 106.758 27.5769C106.336 27.8838 106.011 28.2842 105.784 28.7779C105.556 29.2717 105.443 29.801 105.443 30.3659V31.2733C105.443 32.0472 105.567 32.7033 105.815 33.2416C106.067 33.7753 106.417 34.1823 106.863 34.4626C107.31 34.7383 107.829 34.8762 108.421 34.8762C108.805 34.8762 109.153 34.8184 109.463 34.7028C109.777 34.5827 110.048 34.4047 110.276 34.169C110.503 33.9288 110.679 33.6308 110.803 33.2749L112.218 33.7019C112.069 34.2179 111.818 34.6716 111.467 35.063C111.115 35.45 110.681 35.7525 110.164 35.9705C109.647 36.184 109.066 36.2907 108.421 36.2907Z" fill="#54565B"/>
<path d="M116.005 22.6407V36.3052H114.541V22.6407H116.005Z" fill="#54565B"/>
<path d="M122.707 36.3703C121.789 36.3703 120.996 36.1524 120.331 35.7165C119.669 35.2761 119.158 34.6623 118.798 33.875C118.442 33.0832 118.265 32.1624 118.265 31.1127C118.265 30.063 118.442 29.1378 118.798 28.3371C119.158 27.532 119.658 26.9048 120.3 26.4556C120.945 26.0019 121.698 25.775 122.558 25.775C123.054 25.775 123.544 25.864 124.028 26.0419C124.512 26.2198 124.953 26.5089 125.35 26.9093C125.747 27.3052 126.063 27.83 126.299 28.4839C126.535 29.1378 126.653 29.9429 126.653 30.8992V31.5664H119.307V30.2053H125.164C125.164 29.627 125.056 29.1111 124.841 28.6574C124.63 28.2037 124.328 27.8456 123.935 27.5832C123.546 27.3207 123.087 27.1895 122.558 27.1895C121.975 27.1895 121.47 27.3452 121.044 27.6565C120.622 27.9635 120.298 28.3638 120.07 28.8575C119.843 29.3513 119.729 29.8806 119.729 30.4455V31.3529C119.729 32.1269 119.853 32.783 120.101 33.3212C120.353 33.8549 120.703 34.2619 121.15 34.5422C121.596 34.818 122.115 34.9558 122.707 34.9558C123.091 34.9558 123.439 34.898 123.749 34.7824C124.063 34.6623 124.334 34.4843 124.562 34.2486C124.789 34.0084 124.965 33.7104 125.089 33.3545L126.504 33.7815C126.355 34.2975 126.105 34.7512 125.753 35.1427C125.401 35.5296 124.967 35.8321 124.45 36.0501C123.933 36.2636 123.352 36.3703 122.707 36.3703Z" fill="#54565B"/>
<path d="M128.89 39.9258V25.8343H130.304V27.4623H130.478C130.585 27.2843 130.734 27.0575 130.924 26.7817C131.119 26.5015 131.396 26.2524 131.756 26.0344C132.12 25.812 132.612 25.7008 133.232 25.7008C134.035 25.7008 134.742 25.9166 135.354 26.348C135.966 26.7795 136.444 27.3911 136.787 28.1829C137.131 28.9746 137.302 29.9087 137.302 30.9851C137.302 32.0705 137.131 33.0112 136.787 33.8074C136.444 34.5992 135.968 35.213 135.36 35.6489C134.752 36.0804 134.051 36.2961 133.257 36.2961C132.645 36.2961 132.155 36.1872 131.787 35.9692C131.419 35.7468 131.135 35.4955 130.937 35.2153C130.738 34.9306 130.585 34.6948 130.478 34.508H130.354V39.9258H128.89ZM130.329 30.9585C130.329 31.7324 130.434 32.4152 130.645 33.0068C130.856 33.5939 131.164 34.0543 131.57 34.3879C131.975 34.7171 132.471 34.8817 133.059 34.8817C133.671 34.8817 134.182 34.7082 134.591 34.3612C135.005 34.0098 135.315 33.5383 135.522 32.9467C135.733 32.3507 135.838 31.6879 135.838 30.9585C135.838 30.2379 135.735 29.5884 135.528 29.0102C135.325 28.4275 135.017 27.9671 134.603 27.6291C134.194 27.2866 133.679 27.1153 133.059 27.1153C132.463 27.1153 131.963 27.2777 131.557 27.6024C131.152 27.9226 130.846 28.3719 130.639 28.9501C130.432 29.5239 130.329 30.1934 130.329 30.9585Z" fill="#54565B"/>
<path d="M140.998 30.1257V36.2907H139.534V22.6262H140.998V27.6436H141.122C141.345 27.1143 141.68 26.694 142.127 26.3826C142.578 26.0668 143.178 25.9089 143.926 25.9089C144.576 25.9089 145.144 26.049 145.632 26.3292C146.12 26.605 146.499 27.0298 146.768 27.6036C147.041 28.173 147.177 28.898 147.177 29.7787V36.2907H145.713V29.8855C145.713 29.0715 145.517 28.4421 145.124 27.9973C144.735 27.548 144.195 27.3234 143.504 27.3234C143.025 27.3234 142.594 27.4324 142.214 27.6503C141.838 27.8683 141.54 28.1863 141.321 28.6044C141.105 29.0225 140.998 29.5296 140.998 30.1257Z" fill="#54565B"/>
<path d="M153.737 36.2776C152.877 36.2776 152.122 36.0574 151.473 35.617C150.827 35.1767 150.323 34.5606 149.959 33.7689C149.599 32.9771 149.419 32.0519 149.419 30.9933C149.419 29.9257 149.599 28.9939 149.959 28.1977C150.323 27.4015 150.827 26.7832 151.473 26.3428C152.122 25.9025 152.877 25.6823 153.737 25.6823C154.597 25.6823 155.35 25.9025 155.995 26.3428C156.645 26.7832 157.149 27.4015 157.509 28.1977C157.873 28.9939 158.055 29.9257 158.055 30.9933C158.055 32.0519 157.873 32.9771 157.509 33.7689C157.149 34.5606 156.645 35.1767 155.995 35.617C155.35 36.0574 154.597 36.2776 153.737 36.2776ZM153.737 34.8631C154.391 34.8631 154.928 34.683 155.35 34.3227C155.772 33.9624 156.084 33.4886 156.287 32.9015C156.49 32.3144 156.591 31.6783 156.591 30.9933C156.591 30.3083 156.49 29.67 156.287 29.0784C156.084 28.4868 155.772 28.0086 155.35 27.6439C154.928 27.2791 154.391 27.0968 153.737 27.0968C153.084 27.0968 152.546 27.2791 152.124 27.6439C151.702 28.0086 151.39 28.4868 151.187 29.0784C150.985 29.67 150.883 30.3083 150.883 30.9933C150.883 31.6783 150.985 32.3144 151.187 32.9015C151.39 33.4886 151.702 33.9624 152.124 34.3227C152.546 34.683 153.084 34.8631 153.737 34.8631Z" fill="#54565B"/>
<path d="M161.719 30.1216V36.2866H160.255V26.0383H161.67V27.6396H161.794C162.017 27.1192 162.356 26.701 162.811 26.3852C163.266 26.065 163.854 25.9048 164.573 25.9048C165.218 25.9048 165.783 26.0472 166.267 26.3318C166.751 26.6121 167.127 27.0391 167.396 27.6129C167.665 28.1822 167.799 28.9028 167.799 29.7747V36.2866H166.335V29.8814C166.335 29.0763 166.141 28.4491 165.752 27.9999C165.363 27.5462 164.83 27.3193 164.151 27.3193C163.684 27.3193 163.266 27.4283 162.898 27.6462C162.534 27.8642 162.247 28.1822 162.036 28.6004C161.825 29.0185 161.719 29.5256 161.719 30.1216Z" fill="#54565B"/>
<path d="M174.49 36.2866C173.572 36.2866 172.78 36.0687 172.114 35.6328C171.452 35.1924 170.942 34.5786 170.582 33.7913C170.226 32.9995 170.048 32.0788 170.048 31.029C170.048 29.9793 170.226 29.0541 170.582 28.2534C170.942 27.4483 171.442 26.8211 172.083 26.3719C172.728 25.9182 173.481 25.6913 174.341 25.6913C174.838 25.6913 175.328 25.7803 175.812 25.9582C176.296 26.1361 176.736 26.4252 177.133 26.8256C177.53 27.2215 177.847 27.7463 178.083 28.4002C178.318 29.0541 178.436 29.8592 178.436 30.8155V31.4827H171.091V30.1216H176.947C176.947 29.5434 176.84 29.0274 176.625 28.5737C176.414 28.12 176.112 27.7619 175.719 27.4995C175.33 27.237 174.871 27.1058 174.341 27.1058C173.758 27.1058 173.254 27.2615 172.828 27.5729C172.406 27.8798 172.081 28.2801 171.854 28.7738C171.626 29.2676 171.512 29.7969 171.512 30.3618V31.2692C171.512 32.0432 171.636 32.6993 171.885 33.2375C172.137 33.7712 172.486 34.1782 172.933 34.4585C173.38 34.7343 173.899 34.8721 174.49 34.8721C174.875 34.8721 175.222 34.8143 175.533 34.6987C175.847 34.5786 176.118 34.4007 176.345 34.1649C176.573 33.9247 176.749 33.6267 176.873 33.2708L178.287 33.6979C178.138 34.2138 177.888 34.6675 177.537 35.059C177.185 35.4459 176.751 35.7484 176.234 35.9664C175.717 36.1799 175.136 36.2866 174.49 36.2866Z" fill="#54565B"/>
<path d="M192.324 28.2037L191.009 28.604C190.926 28.3682 190.804 28.1392 190.643 27.9168C190.486 27.6899 190.271 27.5031 189.998 27.3563C189.725 27.2095 189.375 27.1361 188.949 27.1361C188.366 27.1361 187.88 27.2807 187.491 27.5698C187.106 27.8545 186.914 28.217 186.914 28.6574C186.914 29.0488 187.047 29.3579 187.311 29.5848C187.576 29.8116 187.99 30.0007 188.552 30.1519L189.967 30.5256C190.819 30.748 191.453 31.0882 191.871 31.5464C192.289 32.0001 192.498 32.585 192.498 33.3012C192.498 33.8883 192.341 34.4132 192.026 34.8758C191.716 35.3384 191.282 35.7031 190.723 35.97C190.165 36.2369 189.516 36.3703 188.775 36.3703C187.803 36.3703 186.999 36.1435 186.362 35.6898C185.725 35.2361 185.322 34.5733 185.152 33.7015L186.542 33.3278C186.674 33.8794 186.925 34.2931 187.293 34.5689C187.665 34.8446 188.151 34.9825 188.751 34.9825C189.433 34.9825 189.975 34.8268 190.376 34.5155C190.781 34.1997 190.984 33.8216 190.984 33.3812C190.984 33.0254 190.868 32.7274 190.637 32.4872C190.405 32.2425 190.049 32.0601 189.57 31.94L187.981 31.5397C187.109 31.3173 186.467 30.9726 186.058 30.5055C185.653 30.034 185.45 29.4447 185.45 28.7374C185.45 28.1592 185.601 27.6477 185.903 27.2028C186.209 26.758 186.625 26.4089 187.15 26.1553C187.679 25.9018 188.279 25.775 188.949 25.775C189.892 25.775 190.632 25.9974 191.17 26.4422C191.712 26.887 192.097 27.4742 192.324 28.2037Z" fill="#54565B"/>
<path d="M195.645 40C195.397 40 195.175 39.9777 194.981 39.9332C194.787 39.8932 194.652 39.8532 194.578 39.8131L194.95 38.4253C195.306 38.5232 195.62 38.5588 195.893 38.5321C196.166 38.5054 196.408 38.3742 196.619 38.1384C196.834 37.9071 197.03 37.5313 197.208 37.0109L197.481 36.2102L193.957 25.9085H195.546L198.176 34.0751H198.275L200.906 25.9085H202.494L198.449 37.6514C198.267 38.1807 198.042 38.6188 197.773 38.9658C197.504 39.3172 197.192 39.5774 196.836 39.7464C196.484 39.9154 196.087 40 195.645 40Z" fill="#54565B"/>
<path d="M211.177 28.2037L209.861 28.604C209.779 28.3682 209.657 28.1392 209.495 27.9168C209.338 27.6899 209.123 27.5031 208.85 27.3563C208.577 27.2095 208.228 27.1361 207.802 27.1361C207.219 27.1361 206.733 27.2807 206.344 27.5698C205.959 27.8545 205.767 28.217 205.767 28.6574C205.767 29.0488 205.899 29.3579 206.164 29.5848C206.429 29.8116 206.842 30.0007 207.405 30.1519L208.819 30.5256C209.671 30.748 210.306 31.0882 210.724 31.5464C211.142 32.0001 211.35 32.585 211.35 33.3012C211.35 33.8883 211.193 34.4132 210.879 34.8758C210.569 35.3384 210.134 35.7031 209.576 35.97C209.018 36.2369 208.368 36.3703 207.628 36.3703C206.656 36.3703 205.852 36.1435 205.215 35.6898C204.578 35.2361 204.174 34.5733 204.005 33.7015L205.395 33.3278C205.527 33.8794 205.777 34.2931 206.145 34.5689C206.517 34.8446 207.003 34.9825 207.603 34.9825C208.286 34.9825 208.827 34.8268 209.229 34.5155C209.634 34.1997 209.837 33.8216 209.837 33.3812C209.837 33.0254 209.721 32.7274 209.489 32.4872C209.258 32.2425 208.902 32.0601 208.422 31.94L206.834 31.5397C205.961 31.3173 205.32 30.9726 204.911 30.5055C204.505 30.034 204.303 29.4447 204.303 28.7374C204.303 28.1592 204.454 27.6477 204.756 27.2028C205.062 26.758 205.477 26.4089 206.003 26.1553C206.532 25.9018 207.132 25.775 207.802 25.775C208.745 25.775 209.485 25.9974 210.023 26.4422C210.565 26.887 210.949 27.4742 211.177 28.2037Z" fill="#54565B"/>
<path d="M217.699 25.9085V27.2429H212.76V25.9085H217.699ZM214.2 23.4531H215.664V33.2211C215.664 33.6659 215.724 33.9995 215.844 34.2219C215.968 34.4399 216.125 34.5867 216.315 34.6623C216.51 34.7334 216.714 34.769 216.929 34.769C217.091 34.769 217.223 34.7601 217.326 34.7423C217.43 34.7201 217.513 34.7023 217.575 34.689L217.872 36.1034C217.773 36.1435 217.635 36.1835 217.457 36.2235C217.279 36.268 217.054 36.2903 216.781 36.2903C216.367 36.2903 215.962 36.1946 215.565 36.0034C215.172 35.8121 214.845 35.5207 214.584 35.1293C214.328 34.7379 214.2 34.2442 214.2 33.6481V23.4531Z" fill="#54565B"/>
<path d="M223.789 36.2907C222.871 36.2907 222.079 36.0728 221.413 35.6368C220.751 35.1965 220.24 34.5826 219.88 33.7953C219.525 33.0036 219.347 32.0828 219.347 31.0331C219.347 29.9833 219.525 29.0581 219.88 28.2575C220.24 27.4524 220.741 26.8252 221.382 26.3759C222.027 25.9222 222.78 25.6954 223.64 25.6954C224.136 25.6954 224.627 25.7843 225.11 25.9623C225.594 26.1402 226.035 26.4293 226.432 26.8296C226.829 27.2255 227.145 27.7504 227.381 28.4043C227.617 29.0581 227.735 29.8632 227.735 30.8196V31.4868H220.389V30.1257H226.246C226.246 29.5474 226.138 29.0314 225.923 28.5777C225.712 28.124 225.41 27.766 225.017 27.5035C224.629 27.2411 224.17 27.1099 223.64 27.1099C223.057 27.1099 222.552 27.2656 222.126 27.5769C221.704 27.8838 221.38 28.2842 221.152 28.7779C220.925 29.2716 220.811 29.801 220.811 30.3659V31.2733C220.811 32.0472 220.935 32.7033 221.183 33.2416C221.436 33.7753 221.785 34.1823 222.232 34.4625C222.678 34.7383 223.198 34.8762 223.789 34.8762C224.174 34.8762 224.521 34.8184 224.831 34.7027C225.146 34.5826 225.417 34.4047 225.644 34.169C225.871 33.9288 226.047 33.6308 226.171 33.2749L227.586 33.7019C227.437 34.2179 227.187 34.6716 226.835 35.063C226.484 35.45 226.049 35.7525 225.532 35.9704C225.015 36.184 224.434 36.2907 223.789 36.2907Z" fill="#54565B"/>
<path d="M229.967 36.2907V26.0423H231.382V27.6436H231.506C231.704 27.0965 232.025 26.6717 232.468 26.3693C232.91 26.0624 233.442 25.9089 234.062 25.9089C234.691 25.9089 235.214 26.0624 235.632 26.3693C236.053 26.6717 236.382 27.0965 236.618 27.6436H236.717C236.961 27.1143 237.327 26.694 237.815 26.3826C238.303 26.0668 238.889 25.9089 239.571 25.9089C240.423 25.9089 241.12 26.1958 241.662 26.7696C242.204 27.339 242.475 28.2263 242.475 29.4318V36.2907H241.011V29.4318C241.011 28.6756 240.818 28.1352 240.434 27.8104C240.049 27.4857 239.596 27.3234 239.075 27.3234C238.405 27.3234 237.886 27.5413 237.518 27.9773C237.15 28.4087 236.965 28.9558 236.965 29.6186V36.2907H235.477V29.2716C235.477 28.6889 235.301 28.2197 234.949 27.8638C234.598 27.5035 234.145 27.3234 233.59 27.3234C233.21 27.3234 232.854 27.4324 232.523 27.6503C232.197 27.8683 231.932 28.1707 231.729 28.5577C231.531 28.9403 231.431 29.3828 231.431 29.8855V36.2907H229.967Z" fill="#54565B"/>
<path d="M251.902 28.2037L250.586 28.604C250.504 28.3682 250.382 28.1392 250.22 27.9168C250.063 27.6899 249.848 27.5031 249.575 27.3563C249.302 27.2095 248.953 27.1361 248.527 27.1361C247.944 27.1361 247.458 27.2807 247.069 27.5698C246.684 27.8545 246.492 28.217 246.492 28.6574C246.492 29.0488 246.624 29.3579 246.889 29.5848C247.154 29.8116 247.567 30.0007 248.13 30.1519L249.544 30.5256C250.396 30.748 251.031 31.0882 251.449 31.5464C251.867 32.0001 252.075 32.585 252.075 33.3012C252.075 33.8883 251.918 34.4132 251.604 34.8758C251.294 35.3384 250.859 35.7031 250.301 35.97C249.743 36.2369 249.093 36.3703 248.353 36.3703C247.381 36.3703 246.577 36.1435 245.94 35.6898C245.303 35.2361 244.899 34.5733 244.73 33.7015L246.12 33.3278C246.252 33.8794 246.502 34.2931 246.87 34.5689C247.243 34.8446 247.729 34.9825 248.328 34.9825C249.011 34.9825 249.552 34.8268 249.954 34.5155C250.359 34.1997 250.562 33.8216 250.562 33.3812C250.562 33.0254 250.446 32.7274 250.214 32.4872C249.983 32.2425 249.627 32.0601 249.147 31.94L247.559 31.5397C246.686 31.3173 246.045 30.9726 245.636 30.5055C245.23 30.034 245.028 29.4447 245.028 28.7374C245.028 28.1592 245.179 27.6477 245.481 27.2028C245.787 26.758 246.202 26.4089 246.728 26.1553C247.257 25.9018 247.857 25.775 248.527 25.775C249.47 25.775 250.21 25.9974 250.748 26.4422C251.29 26.887 251.674 27.4742 251.902 28.2037Z" fill="#54565B"/>
</svg>
